<?xml version="1.0" encoding="utf-8"?>
<!-- Generator: Adobe Illustrator 16.0.0, SVG Export Plug-In . SVG Version: 6.00 Build 0)  -->
<!DOCTYPE svg PUBLIC "-//W3C//DTD SVG 1.1//EN" "http://www.w3.org/Graphics/SVG/1.1/DTD/svg11.dtd">
<svg version="1.1" id="Layer_1" xmlns="http://www.w3.org/2000/svg" xmlns:xlink="http://www.w3.org/1999/xlink" x="0px" y="0px"
	 width="120px" height="250px" viewBox="0 0 120 250" enable-background="new 0 0 120 250" xml:space="preserve">
<g>
	<path fill="#FFFFFF" d="M50-2v138.202c-26,4.054-44.584,25.925-44.584,52.226c0,29.172,24.916,52.906,54.875,52.906
		c29.961,0,53.522-23.734,53.522-52.906c0-26.074-19.813-47.786-45.813-52.11V-2H50z"/>
	<g>
		<g>
			<g>
				<g>
					<path fill="#646464" d="M50.5-2.425c-0.325,0.086-0.143,0.281,0.749,0.242l0.631-0.331L50.5-2.425z"/>
					<path fill="#646464" d="M56.477-1.813c1.044-0.16,2.248-0.442,1.571-0.746c-1.035,0.318-1.282,0.186-2.398,0.564
						c-0.888,0.038-1.552-0.106-1.402-0.229c-0.313,0.085-1.379-0.072-1.861,0.136c1.158,0.256,2.622,0.266,4.155,0.055
						C56.871-1.96,56.552-1.873,56.477-1.813z"/>
					<path fill="#646464" d="M68.036,73.091l0.039-0.56C68.054,72.688,68.042,72.876,68.036,73.091z"/>
					<path fill="#646464" d="M67.854,126.919c-0.008-0.41-0.041-0.579-0.07-0.599C67.806,126.697,67.826,127.01,67.854,126.919z"/>
					<path fill="#646464" d="M67.49,136.799c0.008-0.325,0.015-0.592,0.022-0.891C67.481,136.254,67.465,136.609,67.49,136.799z"/>
					<path fill="#646464" d="M68.036,73.091l-0.104,1.438C68.04,74.633,68.013,73.794,68.036,73.091z"/>
					<path fill="#646464" d="M69.284-2.61c-0.478,0.016-0.874,0.047-1.233,0.087c0.375-0.012,0.735-0.023,1.11-0.035
						C69.197-2.576,69.231-2.592,69.284-2.61z"/>
					<path fill="#646464" d="M67.768,49.366v-0.439c-0.038-0.127-0.083-0.25-0.135-0.361L67.768,49.366z"/>
					<path fill="#646464" d="M67.717,31.152c-0.012,0.413,0.27,0.557,0.392,0.716c-0.115-0.234-0.171-0.54-0.192-0.898
						C67.862,30.964,67.799,31.016,67.717,31.152z"/>
					<path fill="#646464" d="M68.212,2.28l-0.039-0.514C68.184,1.899,68.2,2.124,68.212,2.28z"/>
					<path fill="#646464" d="M67.707,62.4c-0.042,0.029-0.078,0.094-0.101,0.163C67.642,62.563,67.676,62.498,67.707,62.4z"/>
					<path fill="#646464" d="M49.181,19.35c0.02,0.013,0.032-0.007,0.05-0.003C49.202,19.239,49.183,19.207,49.181,19.35z"/>
					<path fill="#646464" d="M50.572-1.76l0.016,0.293c0.053,0.029,0.105,0.062,0.157,0.062L50.572-1.76z"/>
					<path fill="#646464" d="M83.63,142.663c-0.028-0.017-0.036-0.021-0.061-0.036C83.169,142.462,83.388,142.565,83.63,142.663z"/>
					<path fill="#646464" d="M48.813,238.92c1.626,0.622-2.809-0.3-0.334,0.541C48.27,239.302,50.867,239.549,48.813,238.92z"/>
					<path fill="#646464" d="M69.313-1.93c0.001,0.372,0.002,0.743,0.003,1.124C69.326-1.323,69.325-1.675,69.313-1.93z"/>
					<path fill="#646464" d="M48.479,239.461l0,0.003l0.258,0.085C48.629,239.512,48.57,239.492,48.479,239.461z"/>
					<path fill="#646464" d="M109.147,169.457c0.014-0.091-0.013-0.242-0.043-0.402
						C109.082,169.078,109.086,169.174,109.147,169.457z"/>
					<path fill="#646464" d="M92.18,147.221l0.546,0.447C92.514,147.481,92.338,147.341,92.18,147.221z"/>
					<path fill="#646464" d="M113.083,183.562c0.017,0.385-0.031,0.517,0.036,1.037c0.012-0.052,0.02-0.098,0.026-0.162
						C113.094,184.251,113.079,183.999,113.083,183.562z"/>
					<path fill="#646464" d="M112.271,198.854c0.029-0.08,0.065-0.179,0.098-0.268c0.019-0.152,0.04-0.331,0.059-0.484
						L112.271,198.854z"/>
					<path fill="#646464" d="M49.315,66.764c0.079-0.342,0.167-0.557,0.253-0.719C49.368,66.286,49.297,63.992,49.315,66.764z"/>
					<path fill="#646464" d="M69.145-2.452c0.02-0.006,0.038-0.011,0.067-0.02c0.059,0.062,0.089,0.225,0.102,0.542
						c-0.004-0.21-0.008-0.421-0.008-0.636l-0.145,0.007C69.054-2.517,69.011-2.478,69.145-2.452z"/>
					<path fill="#646464" d="M115.332,184.002l0.078,2.546C115.404,185.833,115.376,184.91,115.332,184.002z"/>
					<path fill="#646464" d="M14.35,157.248c0,0,0.294-0.509,0.306-0.501C14.503,156.916,14.413,157.104,14.35,157.248z"/>
					<path fill="#646464" d="M115.24,194.086c-0.167,0.439-0.297,0.906-0.409,1.396c0.006,0.104,0.007,0.226,0.027,0.3
						L115.24,194.086z"/>
					<path fill="#646464" d="M49.571,66.039c-0.001,0.006-0.003,0.006-0.003,0.006S49.57,66.045,49.571,66.039z"/>
					<path fill="#646464" d="M48.903,49.712c-0.008,2.362,0.362,1.106,0.574,1.607c0.104,2.821-0.272,1.308-0.461,2.265
						c0.098,1.763,0.437,3.11,0.422,4.425c-0.061,0.098-0.083,0.351-0.159,0.052c0.294,1.861,0.015,5.525,0.384,7.695
						C49.63,65.915,49.6,66,49.571,66.039c0.186-0.352,0.373-0.403,0.507-0.332c0.007,1.058,0.233,1.965-0.008,2.362
						c0.007-0.651-0.091-0.703-0.166-1.009l0.105,1.113c-0.348,0.996-0.12-1.516-0.378-1.516c0.113,2.164,0.4,4.685,0.303,6.344
						c-0.34,0.345-0.114-3.878-0.416-1.666l0.129-2.564c-0.535,1.958,0.038-1.562-0.535,0.241c-0.099,3.377,0.173,3.774,0.074,7.145
						c0.188,0.755,0.279-0.254,0.468,0.507c0.339,4.783-0.854,3.768-0.401,7.285c0.226,0.911,0.655,1.266,0.429,3.771l-0.385-0.855
						c-0.037,3.27,0.553,1.864,0.294,5.287c-0.15-0.605-0.127-2.567-0.173-2.073c-0.303,2.216,0.218,1.568,0.218,3.273l-0.34,0.354
						c0.054,3.478,0.299,7.311,0.361,11.167c-0.102-0.215-0.208-0.875-0.312,0.026c0.17,4.861-0.042,10.375-0.243,15.064l0.293,1.79
						c-0.003,0.417-0.133,0.774-0.189,0.325c-0.111,1.826,0.187,0.091,0.302,0.97c0.021,1.041-0.169,1.373-0.257,0.716
						c0.124,1.612,0.258,3.908,0.322,6.227c0.032,1.158,0.046,2.323,0.033,3.409c-0.007,0.522-0.021,1.115-0.042,1.515
						c-0.014,0.098-0.026,0.192-0.039,0.283l-0.024,0.118c-0.001,0.042-0.017,0.069-0.077,0.057
						c0.068,0.049-0.042-0.256-0.038-0.242c-0.008,0.048-0.012,0.092-0.013,0.136c-0.016,0.031-0.073,0.023-0.102,0.039
						c-0.069,0.021-0.128,0.052-0.19,0.088c-0.001,0.023-0.274,0.108-0.446,0.175c-0.185,0.072-0.36,0.141-0.535,0.208
						c-0.695,0.275-1.361,0.52-2.611,0.639l0.456-0.148c-1.424,0.307-2.849,0.779-4.286,1.188c-0.725,0.188-1.415,0.477-2.103,0.753
						c-0.689,0.273-1.373,0.545-2.046,0.812c-1.372,0.479-2.59,1.194-3.803,1.728c-0.603,0.275-1.188,0.542-1.749,0.798
						c-0.541,0.292-1.065,0.564-1.57,0.812c-0.244,0.417-1.523,1.096-2.682,1.861c-1.127,0.809-2.199,1.603-2.168,1.947
						c-1.442,0.854-1.906,1.231-2.544,1.665c-0.315,0.223-0.66,0.477-1.156,0.863c-0.484,0.399-1.176,0.871-1.997,1.725
						c-0.885,0.902-1.021,1.625-2.034,2.796l-0.258-0.176c0,0-0.083,0.103-0.179,0.282c-0.1,0.175-0.232,0.408-0.364,0.643
						c-0.263,0.465-0.526,0.931-0.526,0.931l-0.986,0.657l-0.839,1.197c0.372-0.445,0.875-0.89,0.89-0.766
						c-0.686,0.909-1.458,2.054-2.143,2.933c-0.683,0.88-1.249,1.515-1.333,1.499c0,0-0.187,0.283-0.393,0.75
						c-0.217,0.459-0.508,1.071-0.798,1.684c-0.289,0.61-0.577,1.221-0.793,1.679c-0.227,0.451-0.335,0.772-0.336,0.772
						c-0.089-0.174,0.309-0.985,0.576-1.658c-0.546,1.344-0.668,1.428-0.779,1.487c-0.116,0.057-0.224,0.086-0.612,1.364
						c0.203-0.296,0.092,0.252,0.126,0.332c-0.336,0.57-0.823,1.54-1.273,2.645c-0.382,1.13-0.766,2.38-1.069,3.445l-0.073-0.467
						c-0.158,0.478-0.329,0.959-0.472,1.455c-0.114,0.503-0.229,1.013-0.345,1.527c-0.221,1.031-0.446,2.083-0.675,3.149
						c-0.131,1.083-0.264,2.181-0.398,3.287c-0.064,0.554-0.146,1.107-0.199,1.665l-0.071,1.686
						c0.171-1.609,0.521-1.204,0.498,0.104l-0.349,0.51c0.163,0.855,0.184-1.362,0.353,0.383c-0.111,1.662-0.42,1.114-0.483,0.144
						l0.022,2.042c-0.103,0.12-0.133-0.358-0.251-0.483c0.164,0.831-0.292,3.56,0.191,4.749l-0.087,0.124
						c0.067,1.13,0.222,2.096,0.348,2.973c0.11,0.88,0.285,1.658,0.44,2.411c0.147,0.756,0.309,1.48,0.518,2.232
						c0.201,0.754,0.377,1.553,0.66,2.428c0.308-0.014,0.601,1.396,1.202,2.341c0.76,2.57,1.747,5.415,3.318,8.255
						c1.218,1.932,0.528,0.467,1.18,1.268c-0.067,0.137,0.318,0.894,0.596,1.451c0.281,0.554,0.474,0.895-0.064,0.244
						c1.078,1.621,1.793,2.637,2.652,3.706c0.41,0.549,0.885,1.088,1.449,1.727c0.55,0.651,1.234,1.366,2.099,2.235
						c-0.279-0.467-0.644-0.94-0.372-0.769c0.618,0.631,1.273,1.567,1.105,1.552l-0.182-0.147c2.029,1.858,4.239,4.122,6.559,6.103
						c2.305,1.989,4.712,3.685,6.774,4.505l-0.228-0.097c0,0,0.257,0.123,0.644,0.309c0.386,0.184,0.896,0.438,1.425,0.649
						c0.524,0.221,1.048,0.442,1.441,0.608c0.39,0.17,0.658,0.266,0.658,0.267c1.896,0.879-1.232-0.331,0.125,0.437
						c1.161,0.417,2.196,0.788,3.157,1.133c0.956,0.358,1.836,0.691,2.707,0.979c0.861,0.313,1.705,0.595,2.59,0.822
						c0.442,0.115,0.889,0.231,1.349,0.351c0.466,0.092,0.947,0.174,1.448,0.251c1.433,0.751,4.208,1.201,7.121,1.448
						c2.923,0.249,5.976,0.141,8.107,0.229l-0.252-0.166c1.081-0.228,1.329,0.036,2.141,0.036c-0.126-0.132-1.2-0.1-0.525-0.229
						c0.575-0.053,1.158-0.061,1.734-0.143c0.576-0.092,1.154-0.184,1.733-0.276c1.161-0.173,2.329-0.347,3.503-0.522
						c1.155-0.275,2.315-0.552,3.479-0.83l1.753-0.409c0.574-0.174,1.141-0.377,1.714-0.563l3.438-1.144l3.319-1.461l1.656-0.74
						l1.574-0.891c1.045-0.601,2.101-1.181,3.123-1.805c1.423-1.019,1.688-1.501,2.065-2.007c0.189-0.254,0.407-0.514,0.813-0.852
						c0.203-0.169,0.453-0.357,0.771-0.575c0.305-0.232,0.667-0.508,1.103-0.84l-0.716,1.086c1.246-1.256,2.543-2.47,3.841-3.692
						c1.185-1.335,2.421-2.631,3.599-3.973c1.07-1.429,2.188-2.822,3.185-4.277c0.898-1.52,1.82-3.01,2.586-4.544
						c-0.106,0.407-0.043,0.458-0.39,1.031c0.529-0.536,1.064-1.781,1.543-2.846c0.464-1.073,0.797-2.004,0.712-2.054
						c0.476-0.955,0.294-0.144,0.625-0.72c0.641-1.322,0.98-3.544,1.472-4.19c0.084-0.113-0.067,0.41-0.143,0.667
						c0.328-0.896,1.232-4.259,0.766-3.439c0.362-1.237,0.723-2.425,0.874-3.583c0.151-1.159,0.296-2.249,0.532-3.255
						c0.007-1.349,0.499-4.388,0.113-4.833c0.215,0.102,0.385-1.023,0.43-2.382c-0.054-1.358-0.203-2.941-0.349-3.745
						c0.163,0.535,0.074-1.428,0.293-0.807c-0.22-1.853-0.577-3.534-0.751-3.178c0.092-1.751-0.469-3.411-0.908-4.88
						c-0.237-0.731-0.391-1.435-0.601-2.049c-0.193-0.618-0.312-1.186-0.302-1.699c-1.994-5.172-4.464-9.692-7.457-13.624
						c0.233-0.058,1.011,1.073,1.762,2.162c0.396,0.532,0.702,1.105,0.961,1.499c0.26,0.394,0.456,0.618,0.533,0.514
						c-0.31-0.504-0.604-0.98-0.885-1.437c-0.313-0.438-0.632-0.841-0.933-1.236c-0.604-0.786-1.171-1.521-1.735-2.256
						c-0.569-0.728-1.223-1.388-1.847-2.144c-0.655-0.729-1.244-1.595-2.063-2.421c-0.796-0.905,0.63,0.352,0.948,0.614
						c-0.831-0.833-1.647-1.652-2.451-2.458c-0.405-0.399-0.775-0.828-1.195-1.198c-0.421-0.369-0.839-0.735-1.253-1.1
						c-0.84-0.714-1.624-1.473-2.49-2.104c-0.874-0.623-1.745-1.224-2.621-1.791c0.035-0.026,0.425,0.203,0.787,0.427
						c-0.671-0.476-1.506-1.188-1.546-0.963l0.678,0.428c0.44,0.517-0.297,0.142-1.188-0.306c-0.923-0.403-1.982-0.91-2.085-0.881
						c1.49,0.223-3.41-2.259-1.161-1.754c-0.473-0.271-1.148-0.45-1.097-0.286c-0.695-0.393-0.888-0.579-0.086-0.351
						c-2.697-1.201-1.822-0.605-4.243-1.701c0.043-0.083,0.566,0.062,0.858,0.085c-1.325-0.354-2.656-0.652-4.706-1.565
						c0.143-0.008-0.071-0.177,0.549,0.071c-1.819-0.645-3.459-0.927-5.09-1.338c-0.826-0.168-1.68-0.271-2.567-0.447
						c-0.432-0.088-0.875-0.179-1.337-0.272c-0.156-0.038-0.316-0.076-0.479-0.115l-0.237-0.062
						c-0.056,0.003-0.051-0.045-0.044-0.093l0.008-0.136c0.216,0.234,0.251-0.052,0.279-0.308c0.007-0.067,0.015-0.14,0.022-0.212
						c0.009-0.088,0.02-0.095,0.036-0.26c0.032-0.26,0.084-0.467,0.177-0.522l-0.111-2.245l-0.181,0.898
						c0.006-1.966-0.266-3.703-0.144-5.395l0.154,1.464l-0.071-3.686l-0.142,2.085c-0.192-1.991-0.473,0.215-0.368-2.404
						c0.038,0.53,0.005-1.969,0.225-2.99c0,0,0,0.006,0.001,0.006c-0.119-0.976-0.244-1.975-0.151-3.429
						c0.119-0.377,0.413,0.306,0.492,0.059c-0.312-0.96-0.087-4.607-0.419-5.821c0.078,0.407,0.274,0.426,0.313,0.293l-0.253-0.804
						c0.081-0.911,0.12-1.047,0.276-0.898c0.047-2.739-0.474,0.872-0.27-2.381c0.021,0.253,0.059,0.133,0.097,0.664
						c0.106-3.267-0.16-6.309-0.036-9.312c0.376-0.885,0.093,2.623,0.409,1.611c-0.068-4.327-0.45-8.96-0.361-13.148l-0.042,0.781
						c-0.53-0.579,0.262-3.117,0.012-5.238c0.04,0.521,0.295,0.684,0.235,0.541c0.086-2.867-0.13-5.863-0.297-10.207l0.137,0.537
						c0.121-1.688,0.069-4.451,0.132-6.273c-0.136-0.543-0.114-1.588-0.313-0.953c0.776-5.629-0.416-10.737,0.23-15.731
						c0.002,0.599,0.119,1.425,0.12,0.95l-0.126-4.256c-0.23,0.338-0.14,0.56-0.319,1.451c-0.137-0.54-0.243-1.737-0.243-2.792
						c0.153,1.913,0.371-0.02,0.5-0.846c-0.071,0.14-0.149-0.143-0.221-0.072c0.411-2.226-0.465-0.374-0.188-3.41l0.121,0.163
						c-0.062-1.135-0.222-2.18-0.188-3.406c0.268-0.508,0.125,1.207,0.345,1.285c-0.016-1.718-0.506-3.391-0.24-4.949
						c0.075,0.732,0.076,1.78,0.15,2.512c0.313-1.695,0.233-1.891,0.283-3.153l-0.007,0.124l0.143-2.909l-0.085,0.742
						c-0.697-2.154-0.128-4.386-0.584-7.281c0.432,2.817,0.25,0.462,0.553,0.68c0.084-0.738,0.178-1.864,0.264-1.545
						c-0.245-1.37,0.192-2.287-0.165-4.223c0.098-0.084,0.01-1.464,0.254-1.155c-0.076-1.78-0.169,0.419-0.292,0.27
						c-0.333-2.746,0.404-6.455-0.053-10.405c-0.188-3.403-0.518-4.034-0.681-7.197c0.156-1.067,0.355,0.875,0.355,0.875
						c0.071-0.861,0.101-1.615,0.099-2.356c-0.002-0.371-0.011-0.738-0.027-1.115c-0.021-0.417-0.043-0.843-0.066-1.293
						c0.085,0.359,0.157-0.044,0.267-0.797c-0.004-0.253-0.014-0.451-0.027-0.6c-0.553,0.042-0.817,0.118-1.155,0.169
						c-0.17,0.025-0.356,0.044-0.608,0.049c-0.125-0.001-0.268-0.002-0.434-0.004c-0.139-0.009-0.297-0.019-0.48-0.031
						c0.149-0.055,0.307-0.125,0.529-0.196c0.283-0.071,0.653-0.141,1.144-0.196c-1.297,0.045-1.868,0.113-2.673,0.181
						c-0.769,0.067-1.545,0.135-2.339,0.179c-0.423-0.17,0.957-0.258,1.517-0.368c-1.783,0.076-4.62,0.153-5.173,0.423l1.145,0.096
						c-0.65,0.014-0.335-0.23,0.144-0.28C62.2-2.505,62.877-2.2,62.965-2.103L61.836-2.04c0.566,0.28,1.666,0.264,2.908,0.178
						c0.62-0.049,1.276-0.101,1.919-0.152C67.328-2.063,68.17-2.101,68.84-2.1c0,0.067,0,0.126-0.001,0.185
						c-0.022-0.039-0.044-0.078-0.044-0.139c-0.438,0.124-0.813,0.248-1.129,0.372c0.291-0.04,0.583-0.079,0.835-0.079
						c0.089,0.424,0.178,0.933,0.267,1.526c-0.107,0.538-0.34,0.813-0.402-0.246c-0.205,1.572,0.147,1.428-0.081,2.819
						c-0.036,0.153-0.056,0.085-0.072-0.058l0.124,1.594c-0.088-0.313-0.294,0.263-0.234-0.716
						c-0.239,2.863,0.313,4.613-0.003,5.694l-0.025-0.241c0.141,3.97,0.306,0.384,0.664,3.364l-0.754,2.004l0.306,0.391
						c-0.011,0.41-0.034,1.217-0.156,1.067c0.209,1.526,0.133-0.26,0.33,0.625c-0.278,1.972,0.13,5.44-0.356,5.883
						c0.232,0.709,0.18-1.887,0.341,0.221c-0.523,0.599,0.09,2.434-0.15,4.233c-0.271-0.553-0.127-2.261-0.368-0.459
						c0.456,1.087-0.1,3.508-0.013,5.03c0.363,0.072,0.151,3.302,0.272,5.85c-0.122-0.16-0.199,4.799-0.331,7.171l-0.061-0.072
						c0.367,0.462,0.298,2.909,0.374,4.688c-0.221-0.068-0.307-0.391-0.405-1.357l0.002,1.676c0.117,0.394,0.18,0.917,0.222,2.004
						l-0.274-0.42c0.015,2.226,0.323,4.487,0.14,7.353c0.256,0.163,0.713-2.277,0.884,0.755c-0.138,0.111-0.375,0.221-0.432-0.573
						c0.019,0.26,0.115,0.931,0.056,1.451l-0.232-1.21c-0.103,1.308,0.194,0.684,0.173,1.728c-0.197-0.023-0.141,0.771-0.298,0.621
						c-0.019-0.267,0.082-0.911,0.004-1.308c-0.035,1.178-0.152,2.6-0.302,3.071c0.112-0.104,0.266,0,0.292,0.859
						c0.014,2.232-0.238,0.765-0.339,2.063c0.137,0.54-0.006,1.965,0.29,2.001c-0.002,0.654-0.14,0.771-0.22,1.025
						c0.131,1.151,0.037,5.388,0.352,4.086l0.021-0.293c0.004,0.052,0.008,0.117,0.013,0.188c0-0.013,0,0,0-0.013v0.013
						c0.294,3.781-0.167,7.854-0.041,11.603l-0.099-0.006c0.113,2.242,0.067,4.984,0.279,6.585c0,0.664-0.181,1.562-0.298,1.282
						c0.074,1.711,0.186,1.9,0.022,4.373c-0.173-1.718-0.153,0.596-0.126-1.763c-0.086,2.225-0.244,2.729,0.026,5.118
						c-0.253-0.813-0.318,1.676-0.243,2.73l0.181-1.555c0.037,1.188,0.015,2.225-0.007,3.283l-0.333-0.569
						c-0.404,4.548,0.689,8.206,0.012,11.674c0.232,1.204,0.164-2.473,0.436-1.399c-0.045,2.095-0.522,4.275-0.523,4.932
						c-0.184,2.87,0.486,2.675,0.36,5.678c0.118-0.384,0.436-0.745,0.547,1.497c-0.044,2.095-0.497,2.574-0.593,1.252
						c-0.01-0.501,0.027-0.745,0.068-0.722c-0.044-0.677-0.095-1.569-0.223-0.736l0.118,0.27c-0.121,1.038-0.108,3.921-0.303,3.244
						c0.113,1.584,0.194,0.677,0.256-0.495c-0.086,1.344-0.087,2.394-0.081,3.452c0.001,0.53,0.003,1.062,0.004,1.634
						c-0.013,0.677-0.027,1.401-0.043,2.219c0.032-0.363,0.084-0.701,0.126-0.855c0.043-0.119,0.078-0.146,0.077,0.187
						c-0.008,0.38-0.015,0.724-0.021,1.033c-0.002,0.157-0.005,0.305-0.007,0.445c0.002,0.138-0.045,0.307,0.132,0.29
						c0.493,0.101,0.872,0.179,1.17,0.24c0.294,0.055,0.529,0.092,0.674,0.105c0.112,0.008,0.193,0.007,0.266,0.001
						c0.289-0.022,0.427-0.102,1.768,0.154c1.464,0.521-0.625,0.25,2.052,0.778c1.563,0.602,0.25,0.405-0.4,0.309
						c2.423,0.506,4.391,1.429,5.646,2.056l-1.234-0.39c0.737,0.233,1.326,0.47,1.927,0.71l-0.604-0.496
						c0.695,0.321,1.295,0.561,1.242,0.646c0.795,0.148-0.41-0.588,1.133-0.203c0.91,0.466,2.861,1.255,3.048,1.672
						c-2.826-1.535,0.174,0.441-2.268-0.726c0.481,0.2,1.051,0.486,1.714,0.865c0.087,0.083-0.126,0.011-0.32-0.067
						c2.582,1.645,1.466,0.224,4.181,1.894c-0.436-0.059,0.452,0.672,0.91,0.907c-1.083-0.667-0.367-0.572,0.716-0.069
						c0.851,0.568,1.274,0.931,1.658,1.14c0.373,0.224,0.658,0.363,1.085,0.687l-0.949-0.778c0.438,0.103,1.253,0.729,2.442,1.534
						c0.013,0.181-1.105-0.694-0.731-0.344c0.367,0.175,0.724,0.408,1.072,0.687c0.328,0.304,0.653,0.646,0.99,1.003
						c0.674,0.714,1.391,1.482,2.296,2.133c0.628,0.824-0.162,0.313,0.402,1.016c0.933,0.804,1.354,1.327,1.776,1.861
						c0.216,0.265,0.433,0.531,0.698,0.857c0.254,0.336,0.569,0.718,1.013,1.189c-0.283-0.73-0.416-0.8,0.916,0.476
						c0,0-0.704-0.804-1.409-1.607c-0.336-0.414-0.742-0.768-1.027-1.048c-0.289-0.277-0.481-0.462-0.481-0.462
						s0.54,0.435,1.08,0.87c0.279,0.211,0.506,0.47,0.699,0.643c0.188,0.18,0.313,0.3,0.313,0.3
						c-0.773-1.05-1.953-1.915-2.439-2.516c1.049,0.808,0.915,0.755,0.627,0.17c1.016,1.473,2.483,2.511,3.606,4.257l-0.51,0.31
						c1.607,2.592,3.409,4.26,5.152,7.857l-0.529-1.167c0.233,0.178,0.54,0.714,0.876,1.34c0.311,0.64,0.589,1.399,0.901,1.97
						c-0.229-0.03,0.032,0.736,0.141,1.284c0.049-0.057,0.355,0.603,0.676,1.314c0.274,0.729,0.596,1.5,0.841,1.607l0.322,1.767
						c0.256,0.76,0.405,1.37,0.574,1.886c0.17,0.515,0.345,0.94,0.521,1.363c0.325,0.85,0.778,1.672,0.918,3.229
						c-0.356-0.884-0.254,0.519-0.755-1.486c0.203,1.007,0.252,1.937,0.404,1.93c-0.02,0.309,0.146,1.006,0.312,1.751
						c0.082,0.372,0.164,0.756,0.223,1.106c0.051,0.352,0.036,0.674,0.006,0.914c0.106,0.428,0.319,0.556,0.358,1.722
						c-0.034,0.131-0.098,0.001-0.098,0.001c0.098-0.002,0.218,1.821,0.389,0.797c-0.059,0.403-0.095,0.844-0.114,1.313
						c-0.046,0.469-0.095,0.966-0.146,1.48c-0.085,1.029-0.133,2.132-0.177,3.224c-0.012,0.273-0.022,0.545-0.034,0.815
						c-0.039,0.267-0.078,0.532-0.116,0.794c-0.084,0.521-0.166,1.03-0.244,1.515c-0.171,0.966-0.361,1.828-0.596,2.488
						c-0.183,1.113-0.513,2.316-0.777,3.508c-0.142,0.594-0.282,1.182-0.417,1.745c-0.168,0.554-0.371,1.071-0.54,1.556
						c-0.011-0.14-0.091-0.038,0.063-0.393c-0.576,1.296-0.592,1.751-0.631,2.258c-0.019,0.253-0.043,0.518-0.145,0.905
						c-0.051,0.193-0.121,0.418-0.22,0.687c-0.116,0.261-0.279,0.558-0.478,0.912c-1.014,1.356,0.591-1.612,0.03-0.732
						c-0.396,0.07-0.797,0.946-1.263,2.035c-0.467,1.086-0.969,2.412-1.745,3.212l0.239-0.464c-1.085,1.265-1.78,3.633-3.545,5.715
						c0,0,0.035-0.142-0.067-0.074c-0.212,0.418-0.498,0.912-0.832,1.452c-0.169,0.269-0.343,0.555-0.537,0.838
						c-0.216,0.267-0.438,0.541-0.664,0.82c-0.923,1.103-1.895,2.303-2.795,3.258c0.42-0.738,0.723-0.959,0.215-0.767
						c-0.794,0.856,0.565,0.074-1.122,1.71c-0.665,0.409-2.003,1.449-2.343,1.385l1.623-1.48c-0.538,0.244-1.062,0.719-1.565,1.226
						c-0.254,0.25-0.493,0.521-0.745,0.752c-0.262,0.218-0.515,0.42-0.758,0.579l0.022-0.21c-2.68,2.003-2.409,2.485-5.571,4.287
						l0.381-0.091c-0.754,0.678-1.142,0.848-1.53,1.002c-0.388,0.161-0.773,0.312-1.613,0.847l-0.718-0.096
						c-0.57,0.325-1.567,0.896-2.678,1.531c-1.132,0.597-2.452,1.102-3.544,1.555c0.582-0.365,1.504-0.814,2.469-1.263
						c0.49-0.205,0.962-0.479,1.407-0.746c0.445-0.263,0.867-0.512,1.234-0.728c-0.589,0.257-1.551,0.788-2.49,1.179
						c-0.946,0.374-1.813,0.746-2.099,0.952c0.48-0.213,1.062-0.524,1.565-0.642c-0.688,0.412-1.516,0.833-2.478,1.261
						c-0.484,0.203-0.988,0.452-1.551,0.622c-0.564,0.161-1.162,0.32-1.793,0.478c0.121-0.437-1.512-0.037-3.434,0.371
						c-1.952,0.261-4.191,0.599-5.141,0.43c-1.125,0.126-2.253,0.209-3.391,0.269c-0.569,0.023-1.141,0.048-1.716,0.072
						c-0.576,0.017-1.156-0.04-1.741-0.061c-2.342-0.101-4.757-0.425-7.361-0.815c1.753,0.909-1.521-0.248-1.313,0.409
						c-1.231-0.166-1.682-0.328-1.784-0.376c0,0-0.902-0.28-1.786-0.604c-0.878-0.337-1.756-0.674-1.756-0.674
						c-0.805-0.407,1.165,0.181,1.089,0.018c-2.575-0.761-1.013-0.552-2.647-1.237c0.281,0.306-1,0.046-2.385-0.604
						c0,0,0.478,0.259,0.955,0.517c0.482,0.25,0.975,0.478,0.976,0.478c-3.66-0.968-2.877-1.55-6.427-2.844
						c0,0,0.288,0.089,0.576,0.179c0.286,0.094,0.58,0.167,0.58,0.167c-0.894-0.367-2.507-1.13-4.07-1.982
						c-1.572-0.835-3.119-1.713-4.036-2.063c-0.245-0.254-0.521-0.646,0.206-0.201c-1.909-1.31-4.004-2.82-5.903-4.386
						c-1.916-1.546-3.543-3.239-4.633-4.683l0.347,0.162c-0.622-0.604-1.182-0.979-1.761-1.905c0.084,0.006,0.338,0.178,0.092-0.138
						c-0.339-0.312-1.606-1.673-2.193-2.67c0,0,0.171,0.18,0.343,0.359c0.18,0.173,0.36,0.346,0.36,0.346
						c-0.629-0.939-1.152-1.788-1.699-2.531c-0.497-0.774-0.987-1.465-1.465-2.14c-0.453-0.693-0.893-1.368-1.35-2.068
						c-0.416-0.726-0.844-1.484-1.267-2.343c0.202-0.087-0.002-0.969-0.332-2.031c-0.312-1.066-0.685-2.343-0.934-3.194l0.076,0.039
						c-1.452-5.012-2.489-8.58-2.832-13.483c0.049-0.382,0.085-0.828,0.111-1.326c0.046-0.498,0.097-1.048,0.151-1.638
						c0.123-1.176,0.123-2.521,0.302-3.904c0.207-1.382,0.385-2.825,0.62-4.212c0.333-1.368,0.667-2.689,1-3.854
						c-0.221,0.709-0.351-0.216-0.11-1.053c0.438-1.063,0.688-3.115,1.013-2.811l-0.132,0.386c0.345-0.336,0.577-1.102,0.995-1.926
						c0.383-0.837,0.769-1.804,1.13-2.642l-0.36-0.502c1.378-2.011,2.787-4.799,4.366-7.208c0.704-1.259,1.599-2.304,2.311-3.236
						c0.367-0.459,0.713-0.871,1.035-1.218c0.33-0.34,0.67-0.584,0.953-0.769c0.703-0.923,1.656-1.994,2.389-2.892l0.152,0.244
						c1.209-1.044,2.117-1.826,3.095-2.67c1.027-0.784,2.129-1.624,3.7-2.822l-0.529,0.647c0.872-0.687,1.406-1.147,1.861-1.706
						c0.47-0.535,0.928-1.069,1.81-1.624c0,0,0.741,0.036,0.748,0.051c0.872-0.438,1.757-0.858,2.643-1.272l1.33-0.62l1.379-0.503
						c0.917-0.339,1.826-0.688,2.722-1.064c0.911-0.335,1.834-0.626,2.729-1.001c-0.044,0.077-0.12,0.228-0.718,0.422
						c0.889-0.224,2.577-0.771,4.022-0.992c0.714-0.145,1.349-0.293,1.758-0.433c0.333-0.124,0.838-0.319,0.474-0.394
						c0.038,0.089,0.49,0.048,1.221-0.081c0.181-0.034,0.379-0.071,0.592-0.11c0.092-0.032,0.246-0.019,0.296-0.091
						c0-0.114-0.001-0.23-0.002-0.352c-0.009-0.479-0.019-1.007-0.03-1.563c-0.008-0.206-0.017-0.417-0.025-0.631
						c-0.01-0.168-0.02-0.34-0.03-0.512c-0.023-0.344-0.047-0.693-0.07-1.036c-0.052-0.685-0.103-1.343-0.144-1.881l0.279,0.332
						c-0.356-1.815-0.454-1.874-0.553-4.412c0.037-0.602,0.224-0.527,0.152,0.273c0.146-2.004-0.264-1.562-0.115-3.996l0.178,0.908
						c0.021-2.063-0.074-1.897-0.281-3.036c-0.112-1.295,0.07-3.911,0.322-4.216c-0.154-0.277-0.359-1.406-0.287-2.623
						c0.096-0.163,0.154,0.28,0.184,0.501c0.189-3.449-0.324-5.127-0.051-7.496c0.093-0.052,0.139-0.205,0.167-0.404
						c-0.007,2.74-0.022,4.946-0.043,4.741c0.257,0,0.303-2.212,0.657-0.452c-0.193-1.776-0.614-4.815-0.494-6.969
						c0.025-0.104,0.05-0.208,0.089-0.286l0.029,0.221c0.025-0.495,0.002-0.944-0.042-1.36c0.043-0.689,0.074-1.125,0.077-1.79
						c0.213-0.253,0.115-2.538,0.126-3.637c-0.281,0.091-0.236-1.354-0.469,0c0.021-0.176,0.034,0.208,0.046,0.94
						c0.008,0.166,0.012,0.361,0.028,0.472c-0.007-0.023-0.016-0.049-0.024-0.078c0.005,0.726,0.011,1.672,0.019,2.746
						c-0.143-0.872-0.263-1.783-0.106-3.006c-0.181-0.566-0.366-1.188-0.454-1.539c0.393-1.51,0.604-4.421,0.846-4.825
						c-0.157-3.371-0.104-7.938-0.632-10.053c-0.067-0.96,0.151-1.103,0.234-1.461c0.053,0.553,0.045,1.21,0.121,1.509
						c-0.136-1.916-0.053-5.674-0.422-6.133c0.167-2.414,0.34,1.36,0.279-1.958l0.113,0.449c0.589-6.526-0.942-10.61-0.186-17.843
						c-0.046,0.501-0.067,0.749-0.129,0.853c0.333-8.248-0.313-16.997,0.216-25.137c0.106-2.31-0.129-2.564-0.309-3.976l0.303-0.501
						l-0.349-2.414c-0.255-3.423,0.741-5.928,0.259-10.262l-0.204,0.56c0.039-1.555-0.119-4.929,0.114-4.669
						c-0.037-0.159-0.211-0.511-0.105-1.119l0.158-0.049l-0.271-3.82c0.114-2.967,0.627,0.462,0.657-3.865
						c-0.061-1.607-0.46-4.574-0.565-3.973c-0.008,0.647-0.099,1.656-0.257,1.708l-0.082-1.471
						c-0.466-0.267-0.942-1.399-1.268,2.212l0.284,2.512l-0.226,0.813l-0.014-2.118c-0.213,1.201-0.025,1.962,0.104,2.814
						c-0.12,0.202-0.204,0.553-0.249,1.054l0.444,2.469c-0.182,0.299-0.361-1.109-0.462,0.55c0.207,1.158,0.408-1.109,0.544,0.807
						c-0.211,1.204-0.384,0.853-0.203,2.264c-0.12,0.195-0.196-0.104-0.249-0.664c0.144,1.259,0.061,3.329,0.309,3.976
						c-0.262,1.256,0.067,4.246-0.373,4.122c0.105,0.394,0.346,2.216,0.364,3.368c-0.527-2.108-0.031,4.324-0.597,3.768
						c0.475,1.562,0.211,5.638,0.474,8.404c-0.037-0.153-0.113-0.458-0.09-0.703c-0.039,1.559-0.182,2.007-0.271,3.01
						c0.392,0.202,0.481,2.622,0.723,3.93c-0.378,1.907-0.46-1.158-0.823-0.56c0.318-0.098,0.317,3.315,0.582,2.668
						c-0.234,1.458-0.113,1.256-0.438,2.007c0.49,0.257,0.083,1.357,0.384,2.567c-0.241,2.115-0.459,0.547-0.31,2.863
						C49.077,51.775,48.903,49.712,48.903,49.712z M49.751,104.88h-0.006c-0.007-0.475-0.012-0.882-0.016-1.139
						C49.734,103.976,49.74,104.307,49.751,104.88z M49.755,109.513c0.003-0.563,0.007-1.266,0.012-2.011
						c0.097-0.163,0.196,0.013,0.191,0.481C49.894,107.73,49.837,108.823,49.755,109.513z M51.703,99.707
						c0.04,0.735-0.016,0.983-0.073,1.08c-0.009-0.345-0.02-0.748-0.033-1.282c-0.009-0.021-0.026-0.063-0.034-0.084
						C51.616,99.489,51.666,99.57,51.703,99.707z"/>
					<path fill="#646464" d="M51.335,98.389c-0.007-0.107-0.019-0.166-0.021-0.303c-0.022,0.15-0.043,0.293-0.063,0.436
						c0.03,0.091,0.061,0.182,0.088,0.26C51.337,98.652,51.336,98.513,51.335,98.389z"/>
					<path fill="#646464" d="M68.082,72.434l-0.007,0.098c0.012-0.078,0.022-0.156,0.04-0.202
						C68.102,72.395,68.093,72.395,68.082,72.434z"/>
					<polygon fill="#646464" points="17.492,152.996 17.549,153.037 17.786,152.695 					"/>
					<path fill="#646464" d="M69.047,46.9c0.024-0.046,0.05-0.143,0.072-0.332C69.101,46.581,69.074,46.724,69.047,46.9z"/>
					<path fill="#646464" d="M69.109,35.87l0.101-1.559C69.153,34.985,69.126,35.479,69.109,35.87z"/>
					<path fill="#646464" d="M69.249,27.391c-0.049-0.107-0.086-0.137-0.12-0.166l-0.002,0.017L69.249,27.391z"/>
					<path fill="#646464" d="M92.818,145.356c0.099,0.066,0.191,0.13,0.277,0.188C93.76,145.965,93.315,145.665,92.818,145.356z"/>
					<path fill="#646464" d="M68.923,122.103c0.051,0.423,0.101,0.846,0.133,1.289C69.077,122.676,69.083,122.123,68.923,122.103z"
						/>
					<path fill="#646464" d="M115.324,183.722c-0.003-0.007-0.003,0-0.006-0.007c0.005,0.101,0.009,0.188,0.014,0.287
						L115.324,183.722z"/>
					<path fill="#646464" d="M69.051,125.259c0.056-0.716,0.044-1.314,0.005-1.868C69.037,123.978,69.008,124.667,69.051,125.259z"
						/>
					<path fill="#646464" d="M60.895-2.637l-0.407-0.012c0.007,0.019-0.019,0.034-0.052,0.046L60.895-2.637z"/>
					<path fill="#646464" d="M60.437-2.603l-0.452,0.033C60.192-2.569,60.372-2.572,60.437-2.603z"/>
					<path fill="#646464" d="M59.031-2.499l0.954-0.07C59.656-2.57,59.246-2.579,59.031-2.499z"/>
					<path fill="#646464" d="M69.247,1.864l0.102,0.126C69.327,1.922,69.295,1.876,69.247,1.864z"/>
					<path fill="#646464" d="M69.276,5.273C69.3,4.46,69.494,3.23,69.43,2.098L69.349,1.99C69.5,2.524,69.104,4.499,69.276,5.273z"
						/>
					<path fill="#646464" d="M68.017,19.511l0.081-2.857c-0.108,0.501-0.255,1.158-0.28-0.143
						C67.493,20.116,68.06,15.77,68.017,19.511z"/>
					<path fill="#646464" d="M67.858,28.377c-0.05-1.536-0.157,0.017-0.219-0.062C67.738,29.288,67.764,29.525,67.858,28.377z"/>
					<path fill="#646464" d="M67.857,92.437l-0.256-0.156C67.639,93.465,67.701,92.294,67.857,92.437z"/>
					<polygon fill="#646464" points="69.18,104.68 69.339,103.528 69.104,102.979 					"/>
					<polygon fill="#646464" points="67.357,111.913 67.321,111.399 67.414,113.371 					"/>
					<path fill="#646464" d="M112.438,196.115l0.365-0.302C112.867,195.025,112.54,194.821,112.438,196.115z"/>
					<path fill="#646464" d="M88.063,232.941c-0.512,0.122-1.657,0.691-2.262,1.234C86.688,233.668,87.632,233.246,88.063,232.941z"
						/>
					<polygon fill="#646464" points="12.706,164.601 12.369,165.454 13.101,163.897 					"/>
				</g>
			</g>
		</g>
	</g>
</g>
<g>
	<rect x="50" fill="#666666" width="18" height="137"/>
	<g>
		<g>
			<g>
				<g>
					<path fill="#797979" d="M67.335,136.731c0.086,0.164,0.281,0.072,0.242-0.378l-0.331-0.319L67.335,136.731z"/>
					<path fill="#797979" d="M67.947,133.712c-0.16-0.527-0.442-1.136-0.746-0.794c0.318,0.522,0.186,0.647,0.564,1.212
						c0.038,0.448-0.106,0.783-0.229,0.708c0.085,0.158-0.072,0.697,0.136,0.94c0.256-0.585,0.266-1.325,0.055-2.1
						C67.8,133.513,67.887,133.674,67.947,133.712z"/>
					<path fill="#797979" d="M68.464,89.823l-0.039,0.283C68.446,90.026,68.458,89.931,68.464,89.823z"/>
					<path fill="#797979" d="M68.646,62.628c0.008,0.208,0.041,0.293,0.07,0.303C68.694,62.74,68.674,62.583,68.646,62.628z"/>
					<path fill="#797979" d="M69.01,57.985c-0.008,0.101-0.015,0.183-0.022,0.275C69.019,58.154,69.035,58.049,69.01,57.985z"/>
					<path fill="#797979" d="M68.464,89.823l0.104-0.727C68.46,89.043,68.487,89.467,68.464,89.823z"/>
					<path fill="#797979" d="M67.149,127.66c0.016,0.152,0.047,0.277,0.087,0.394c-0.012-0.125-0.023-0.245-0.035-0.369
						C67.184,127.678,67.168,127.671,67.149,127.66z"/>
					<path fill="#797979" d="M68.732,101.809v0.222c0.038,0.064,0.083,0.126,0.135,0.182L68.732,101.809z"/>
					<path fill="#797979" d="M68.783,111.01c0.012-0.208-0.27-0.281-0.392-0.362c0.115,0.119,0.171,0.273,0.192,0.454
						C68.638,111.105,68.701,111.079,68.783,111.01z"/>
					<path fill="#797979" d="M68.288,125.597l0.039,0.26C68.316,125.789,68.3,125.676,68.288,125.597z"/>
					<path fill="#797979" d="M68.793,95.224c0.042-0.015,0.078-0.047,0.101-0.082C68.858,95.142,68.824,95.174,68.793,95.224z"/>
					<path fill="#797979" d="M57.335,135.412c-0.006,0.02,0.003,0.032,0.001,0.05C57.391,135.434,57.408,135.414,57.335,135.412z"/>
					<path fill="#797979" d="M68,136.804l-0.147,0.016c-0.016,0.053-0.031,0.105-0.031,0.157L68,136.804z"/>
					<path fill="#797979" d="M69.37,49.489c-0.003,0.017-0.003,0.021-0.005,0.036C69.396,49.749,69.392,49.624,69.37,49.489z"/>
					<path fill="#797979" d="M48.837,10.487c0.251-0.883,0.323,1.44,0.602,0.108C49.329,10.721,49,9.386,48.837,10.487z"/>
					<path fill="#797979" d="M67.187,127.421c-0.001-0.125-0.002-0.249-0.003-0.378C67.174,127.216,67.175,127.333,67.187,127.421z"
						/>
					<path fill="#797979" d="M49.438,10.596h0.003l0.026-0.138C49.456,10.515,49.449,10.546,49.438,10.596z"/>
					<path fill="#797979" d="M69.201,29.908c-0.05,0.042-0.087,0.119-0.123,0.201C69.107,30.103,69.143,30.056,69.201,29.908z"/>
					<path fill="#797979" d="M68.802,44.495l0.037-0.362C68.813,44.278,68.805,44.393,68.802,44.495z"/>
					<path fill="#797979" d="M68.805,22.337c0.021-0.197,0.061-0.263,0.022-0.533c-0.015,0.026-0.024,0.049-0.034,0.083
						C68.831,21.984,68.85,22.114,68.805,22.337z"/>
					<path fill="#797979" d="M68.803,14.454c-0.021,0.042-0.037,0.097-0.057,0.145c0.005,0.079,0.011,0.171,0.016,0.25
						L68.803,14.454z"/>
					<path fill="#797979" d="M51.185,120.113c-0.079,0.172-0.167,0.281-0.253,0.363C51.132,120.354,51.203,121.513,51.185,120.113z"
						/>
					<path fill="#797979" d="M67.308,127.654c-0.071-0.046-0.106-0.111-0.121-0.233c0.005,0.091,0.01,0.178,0.015,0.264
						C67.243,127.707,67.282,127.711,67.308,127.654z"/>
					<path fill="#797979" d="M66.587,22.015l0.042-1.252C66.602,21.114,66.587,21.568,66.587,22.015z"/>
					<path fill="#797979" d="M51.145,63.563l0.033,0.289C51.185,63.741,51.176,63.639,51.145,63.563z"/>
					<path fill="#797979" d="M66.587,17.048c0.1-0.224,0.157-0.46,0.194-0.707c-0.021-0.051-0.04-0.11-0.072-0.145L66.587,17.048z"
						/>
					<path fill="#797979" d="M50.929,120.479c0.001-0.003,0.003-0.003,0.003-0.003S50.93,120.476,50.929,120.479z"/>
					<path fill="#797979" d="M51.597,128.728c0.008-1.193-0.362-0.559-0.574-0.812c-0.104-1.426,0.272-0.661,0.461-1.145
						c-0.098-0.891-0.437-1.571-0.422-2.235c0.061-0.049,0.083-0.178,0.159-0.026c-0.294-0.94-0.015-2.791-0.384-3.888
						c0.033-0.08,0.063-0.123,0.092-0.143c-0.186,0.177-0.373,0.204-0.507,0.167c-0.007-0.534-0.233-0.993,0.008-1.193
						c-0.007,0.329,0.091,0.355,0.166,0.51l-0.105-0.563c0.348-0.503,0.12,0.766,0.378,0.766c-0.113-1.093-0.4-2.367-0.303-3.205
						c0.34-0.174,0.114,1.959,0.416,0.841l-0.129,1.295c0.535-0.99-0.038,0.789,0.535-0.122c0.099-1.707-0.173-1.907-0.074-3.61
						c-0.188-0.381-0.279,0.128-0.468-0.256c-0.339-2.417,0.854-1.903,0.401-3.68c-0.226-0.46-0.655-0.64-0.429-1.905l0.385,0.433
						c0.037-1.652-0.553-0.942-0.294-2.671c0.15,0.306,0.127,1.297,0.173,1.047c0.303-1.12-0.218-0.792-0.218-1.654l0.34-0.179
						c-0.054-1.757-0.299-3.693-0.361-5.641c0.102,0.108,0.208,0.442,0.312-0.013c-0.17-2.456,0.042-5.242,0.243-7.611l-0.293-0.904
						c0.003-0.21,0.133-0.391,0.189-0.165c0.111-0.922-0.187-0.046-0.302-0.49c-0.021-0.526,0.169-0.693,0.257-0.361
						c-0.249-1.629-0.536-4.641-0.222-6.356l0.087,0.333c0.119-1.334-0.602-1.507-0.327-2.747l0.052,0.238
						c0.127-2.901-0.142-6.106,0.302-8.32c-0.423-0.421,0.188-2.87-0.401-3.058c0.292-1.655,0.397-1.18,0.594-3.514
						c0.027-0.622-0.368-0.927-0.43-1.698l0.309-0.018l-0.323-1.045l0.368-0.557l-0.079-0.722c-0.018,0.286-0.139,0.612-0.228,0.567
						c-0.139-1.129,0.215-2.75,0.373-2.78l-0.261-2.669c0.124,0.059,0.167,0.506,0.246,0.861c-0.314-1.427,0.324-0.26,0.036-1.565
						c-0.07,0.174-0.184-0.095-0.246-0.125c0.187-0.651,0.188-2.133,0.109-3.228l0.213,0.21c0.054-1.981-0.103-4.175-0.099-6.397
						c-0.099,0.797-0.467,0.615-0.502-0.038l0.325-0.261c-0.201-0.421-0.123,0.681-0.369-0.182c0.037-0.83,0.37-0.558,0.477-0.081
						l-0.113-1.009c0.098-0.06,0.148,0.177,0.272,0.238c-0.202-0.415,0.327-1.743-0.024-2.339l0.097-0.057
						c0.003-2.221-0.109-3.23-0.125-5.038c-0.281-0.036-0.219-0.743-0.446-1.282c0.09-1.332,0.311-2.808,0.287-4.409
						c-0.141-1.127-0.238-0.329-0.405-0.835c0.256-0.083,0.231-1.683,0.416-0.854c-0.042-1.923-0.051-2.456-0.259-4.889
						c-0.105,0.265-0.151,0.562-0.238,0.408c-0.042-0.44,0.107-1.004,0.23-0.94l0.026,0.115c-0.384-2.729,0.747-6.3,0.213-8.475
						l0.026,0.122l-0.278-2.253c0.044-1.037,0.192,0.623,0.351-0.146c-0.427-2.431,0.063-3.841-0.223-5.845
						c0.756-1.548-0.053-5.5,0.43-7.592l-0.178,0.12c-0.175-0.539,0.102-0.654,0.143-1.052c-0.139,0.056-0.16,0.586-0.257,0.25
						c-0.037-1.046-0.054-0.962-0.055-1.272c0.585,0.018,1.175,0.036,1.77,0.054c0.977,0.044,1.96,0.088,2.944,0.132
						c1.968,0.103,3.94,0.223,5.882,0.29c1.716,0.047,0.973-0.921,3.139-0.496l-0.614,0.33c0.616-0.07,1.236-0.115,1.86-0.143
						l0.234-0.01c0.055-0.003,0.042-0.006,0.067-0.009l0.1-0.012l0.21-0.013c-0.003,0.714-0.006,1.43-0.009,2.139
						c0.005,1.128,0.036,2.246,0.145,3.34c-0.076-0.202-0.175-0.208-0.174-0.539c-0.24,0.717-0.012,2.651,0.185,2.663
						c-0.022,0.527-0.178,0.123-0.277,0.449c-0.142,0.718,0.307,1.805,0.067,2.186c-0.039,0.066-0.077-0.202-0.096-0.333
						c0.116,0.468-0.03,2.183,0.247,1.734c-0.132,1.274,0.123,2.436-0.041,3.452c0.31,0.664-0.149,2.182,0.289,2.392
						c-0.452-0.091-0.365,2.233-0.152,3.039c-0.137-0.27-0.142,0.7-0.331,0.385c0.007,0.917,0.091,1.76,0.323,1.601
						c-0.542,1.693,0.436,3.402-0.259,4.355c0.243,2.73,0.408,5.257,0.514,7.712c-0.451-0.088-0.045-2.715-0.519-2.61
						c0.187,2.331,0.573,3.675,0.465,5.985c-0.062,0.598-0.196-0.34-0.273-0.541c0.187,2.328-0.041,4.5,0.205,6.572
						c-0.042-0.007-0.088-0.23-0.122-0.44c0.015,0.407-0.066,0.948,0.139,0.902l-0.056-0.398c0.298-0.652,0.621,1.621,0.778,1.695
						c-0.587-0.694-0.147,2.045-0.89,0.943c0.038,0.27,0.136,0.606,0.272,0.546c-0.04,0.397-0.12,0.524-0.275,0.12
						c0.111,1.461,0.329,0.942,0.324,2.267c-0.099-0.003-0.138-0.271-0.254-0.408c0.193,0.67,0.387,1.344,0.303,2.462
						c-0.06-0.066-0.138,0.063-0.136-0.27c0.03,1.921,0.516,3.276,0.328,5.385c-0.431-0.622-0.142,0.716-0.515,0.828l0.111,1.134
						l0.181-0.454c-0.006,0.993,0.266,1.871,0.144,2.726l-0.154-0.74l0.071,1.862l0.142-1.054c0.192,1.006,0.473-0.108,0.368,1.215
						c-0.038-0.268-0.005,0.994-0.225,1.51l-0.001-0.003c0.119,0.493,0.244,0.998,0.151,1.732c-0.119,0.19-0.413-0.155-0.492-0.03
						c0.312,0.485,0.087,2.328,0.419,2.941c-0.078-0.206-0.274-0.215-0.313-0.148l0.253,0.406c-0.081,0.46-0.12,0.529-0.276,0.454
						c-0.047,1.384,0.474-0.44,0.27,1.203c-0.021-0.128-0.059-0.067-0.097-0.335c-0.106,1.65,0.16,3.187,0.036,4.704
						c-0.376,0.447-0.093-1.325-0.409-0.813c0.068,2.186,0.45,4.527,0.361,6.642l0.042-0.395c0.53,0.293-0.262,1.575-0.012,2.646
						c-0.04-0.263-0.295-0.345-0.235-0.273c-0.086,1.448,0.13,2.962,0.297,5.157l-0.137-0.271c-0.121,0.853-0.069,2.249-0.132,3.169
						c0.136,0.274,0.114,0.802,0.313,0.481c-0.776,2.844,0.416,5.424-0.23,7.947c-0.002-0.302-0.119-0.72-0.12-0.48l0.126,2.15
						c0.23-0.171,0.14-0.283,0.319-0.733c0.137,0.273,0.243,0.878,0.243,1.411c-0.153-0.967-0.371,0.01-0.5,0.427
						c0.071-0.071,0.149,0.072,0.221,0.036c-0.411,1.124,0.465,0.189,0.188,1.723l-0.121-0.082c0.062,0.573,0.222,1.101,0.188,1.721
						c-0.268,0.256-0.125-0.61-0.345-0.649c0.016,0.868,0.506,1.713,0.24,2.5c-0.075-0.37-0.076-0.899-0.15-1.269
						c-0.313,0.856-0.233,0.955-0.283,1.593l0.007-0.063l-0.143,1.469l0.085-0.375c0.697,1.088,0.128,2.216,0.584,3.679
						c-0.432-1.423-0.25-0.233-0.553-0.344c-0.084,0.373-0.178,0.942-0.264,0.781c0.245,0.692-0.192,1.156,0.165,2.134
						c-0.098,0.042-0.01,0.74-0.254,0.583c0.076,0.899,0.169-0.212,0.292-0.137c0.333,1.388-0.404,3.261,0.053,5.257
						c0.188,1.719,0.518,2.038,0.681,3.636c-0.156,0.539-0.355-0.442-0.355-0.442c-0.144,0.87-0.117,1.524-0.005,2.342
						c-0.085-0.164-0.157,0.007-0.267,0.257c0.025,0.657,0.354,0.438,0.211,1.305c-0.108-0.147-0.282-0.339-0.392-0.656
						c0.09,0.774,0.271,1.541,0.359,2.343c-0.17,0.214-0.258-0.483-0.368-0.766c0.076,0.9,0.153,2.334,0.423,2.613l0.096-0.579
						c0.014,0.329-0.23,0.17-0.28-0.072c-0.211-0.772,0.094-1.114,0.191-1.158l0.063,0.57c0.572-0.585-0.092-2.295-0.059-3.443
						l0.416,0.478l-0.345-1.179c0.107-0.251,0.34-0.422,0.402,0.146c0.205-0.825-0.147-0.729,0.081-1.439
						c0.036-0.078,0.056-0.043,0.072,0.029l-0.124-0.805c0.088,0.158,0.294-0.133,0.234,0.361c0.239-1.446-0.313-2.331,0.003-2.876
						l0.025,0.122c-0.141-2.005-0.306-0.194-0.664-1.7l0.754-1.012l-0.306-0.197c0.011-0.207,0.034-0.615,0.156-0.539
						c-0.209-0.771-0.133,0.131-0.33-0.316c0.278-0.996-0.13-2.748,0.356-2.972c-0.232-0.358-0.18,0.953-0.341-0.112
						c0.523-0.302-0.09-1.229,0.15-2.139c0.271,0.28,0.127,1.143,0.368,0.232c-0.456-0.549,0.1-1.772,0.013-2.541
						c-0.363-0.036-0.151-1.668-0.272-2.956c0.122,0.081,0.199-2.425,0.331-3.623l0.061,0.036c-0.367-0.233-0.298-1.469-0.374-2.369
						c0.221,0.035,0.307,0.197,0.405,0.686l-0.002-0.846c-0.117-0.199-0.18-0.464-0.222-1.013l0.274,0.212
						c-0.015-1.124-0.323-2.267-0.14-3.715c-0.256-0.082-0.713,1.151-0.884-0.381c0.138-0.056,0.375-0.112,0.432,0.29
						c-0.019-0.132-0.115-0.47-0.056-0.733l0.232,0.612c0.103-0.661-0.194-0.345-0.173-0.873c0.197,0.012,0.141-0.39,0.298-0.314
						c0.019,0.135-0.082,0.46-0.004,0.661c0.035-0.595,0.152-1.313,0.302-1.552c-0.112,0.053-0.266,0-0.292-0.434
						c-0.014-1.128,0.238-0.386,0.339-1.042c-0.137-0.272,0.006-0.993-0.29-1.011c0.002-0.33,0.14-0.39,0.22-0.518
						c-0.131-0.582-0.037-2.722-0.352-2.064l-0.021,0.148c-0.004-0.027-0.008-0.059-0.013-0.096c0,0.007,0,0,0,0.007v-0.007
						c-0.294-1.91,0.167-3.968,0.041-5.861l0.099,0.003c-0.113-1.133-0.067-2.519-0.279-3.327c0-0.335,0.181-0.789,0.298-0.647
						c-0.074-0.865-0.186-0.96-0.022-2.209c0.173,0.868,0.153-0.301,0.126,0.891c0.086-1.125,0.244-1.379-0.026-2.585
						c0.253,0.411,0.318-0.847,0.243-1.379l-0.181,0.786c-0.037-0.6-0.015-1.124,0.007-1.658l0.333,0.288
						c0.404-2.298-0.689-4.146-0.012-5.898c-0.232-0.608-0.164,1.25-0.436,0.707c0.045-1.059,0.522-2.16,0.523-2.492
						c0.184-1.45-0.486-1.351-0.36-2.868c-0.118,0.194-0.436,0.376-0.547-0.756c0.044-1.059,0.497-1.3,0.593-0.633
						c0.01,0.253-0.027,0.376-0.068,0.365c0.044,0.342,0.095,0.792,0.223,0.372l-0.118-0.137c0.121-0.524,0.108-1.98,0.303-1.639
						c-0.113-0.801-0.194-0.342-0.256,0.25c0.172-1.358,0.005-2.121,0.12-3.518c-0.065,0.22-0.204,0.425-0.203,0.204
						c0.146-2.048-0.226-0.901-0.277-2.292c0.181-0.789,0.432,0.283,0.28-1.114c0.123-0.855,0.315-0.181,0.412,0.158
						c-0.229-1.272,0.15-2.38,0.192-3.106l0.096,0.67c-0.058-0.401-0.056-0.73-0.055-1.065l-0.237,0.384
						c0.041-0.394,0.042-0.728,0.141-0.72c-0.155-0.408-0.395,0.309-0.607-0.497c0.121-0.524-0.129-1.598,0.186-1.78
						c-0.106,1.652,0.316-0.183,0.367,1.214c-0.037-0.27-0.036-0.598,0.006-0.993c0.035-0.059,0.065,0.056,0.083,0.165
						c0.281-1.582-0.356-0.727-0.349-2.366c0.178,0.209,0.337-0.379,0.299-0.646c-0.004,0.659-0.296,0.316-0.433-0.291
						c0.139-1.051-0.103-1.143-0.086-1.691l-0.065,0.628c-0.178-0.214-0.154-0.738-0.21-1.47c0.138-0.063,0.095,0.664,0.156,0.403
						c-0.313-0.814,0.322-1.836,0.112-2.97c0.12-0.526,0.334-0.051,0.415-0.513c-0.23-1.269,0.243-1.374,0.053-2.71
						c-0.238,0.385-0.18,0.452-0.412-0.488l0.168,2.196l-0.348-1.41c-0.003,0.664,0.15,1.398,0.109,1.795
						c-0.194-0.671-0.135-0.602-0.333-0.285c0.358-0.906-0.208-1.796,0.033-2.845l0.591,0.033c0.264-1.576-0.303-2.801-0.154-4.846
						l-0.103,0.658c-0.235-0.274-0.033-1.262-0.128-1.926c0.197,0.062,0.269-0.352,0.392-0.635
						c-0.146,0.035,0.014-1.498-0.381-1.683l0.26-0.914c0.106-1.65-0.563-1.884-0.495-3.471c0.215,0.477,0.354-0.244,0.508,0.818
						c0.002-0.529,0.038-1.006-0.099-1.014c0.124-0.311-0.266-1.471-0.078-1.958c-0.087-0.224-0.294-0.296-0.277-0.891
						c0.04-0.066,0.098,0.001,0.098,0.001c-0.098-0.001-0.133-0.932-0.352-0.413c0.616-1.632-0.044-4.563,0.484-5.986
						c-0.066-1.157-0.13-2.551-0.144-3.6c0.059,0.065,0.098,0.003,0.077,0.2c0.184-1.448-0.566-0.891-0.361-2.538
						c0.319-0.843,0.173,0.875,0.293,0.348c0.65-0.227-0.088-1.989,0.291-3.098L68.94,6.18c0.221-0.848-0.246-2.068-0.199-3.456
						c0,0,0.057,0.069,0.098,0.01c-0.114-0.344-0.203-0.721-0.272-1.269c-0.07-0.638-0.122-1.279-0.164-1.882
						c-0.582,0.034-1.156,0.066-1.675,0.097c0.563-0.255,0.829-0.135,0.576-0.394c-0.436,0.019-0.393,0.123-0.459,0.23
						c-0.044,0.108-0.268,0.221-0.836,0.257c-0.389-0.139-1.25-0.261-1.363-0.536l1.126-0.015c-0.577-0.357-1.456,0.012-2.05-0.05
						l0.076-0.156c-1.725,0.051-1.748,0.443-3.602,0.415l0.19,0.118c-1.013,0.39-0.848-0.219-1.857,0.07l-0.306-0.395
						c-0.669,0.096-2.341,0.382-3.541,0.456c0.68-0.293,2.081-0.442,2.949-0.616c-0.661-0.003-2.25,0.029-2.595,0.224
						c0.268-0.038,0.603-0.135,0.866-0.074c-0.812,0.311-1.88,0.463-3.202,0.456c0.077-0.25-0.264-0.357-0.792-0.409
						c-0.203-0.026-0.711-0.038-1.192-0.047c-0.493-0.009-1.013-0.02-1.516-0.029c-0.03,1.004-0.096,2.03-0.302,2.496
						c0.283,2.336-0.12,4.632-0.075,7.353c0.596-0.965,0.017,0.794,0.629,0.628c0.038,0.633,0.028,0.875-0.011,0.93l-0.365,1.92
						c-0.179,0.457-0.135-0.602-0.272-0.542c-0.047,1.387-0.259,0.582-0.422,1.499c0.219-0.187,0.313,0.483,0.23,1.272l0.281-1.113
						c0.326,1.938-0.513,1.675-0.19,3.631l-0.192-0.618c0.113,1.003-0.004,3.699,0.487,4.682c-0.07,0.177-0.238,0.411-0.282-0.03
						c-0.073,2.396,0.522,5.335,0.221,7.196l-0.149-0.181c0.043,0.447,0.28,0.779,0.13,1.338c-0.062-0.029-0.149-0.181-0.158,0.026
						c0.052,0.237,0.263,1.188,0.175,1.782l-0.168-0.506c-0.195,2.337,0.41,3.587,0.513,5.546c-0.44-0.003-0.584,1.834-0.655,2.753
						l-0.062-0.031c-0.055,2.722,0.364,4.622,0.537,7.144c-0.478,1.565-0.2,5.3-0.468,7.814c0.08-0.385,0.343,0.063,0.387,0.51
						c-0.089,0.592,0.306,1.632-0.098,1.539l0.008-0.21c-0.396,0.444-0.291,1.657-0.302,2.604l0.528,0.158
						c-0.769,2.476,0.282,6.49-0.406,7.841c0.132,0.598,0.131,1.338,0.263,1.931l-0.283-0.031c-0.072,1.655-0.108,2.482-0.04,4.53
						l-0.203-0.417c-0.018,1.154,0.816,1.457,0.833,2.521l-0.422,0.322c0.006,2.014-0.365,4.053,0.019,6.042
						c-0.062-0.033-0.185-0.092-0.201-0.417c-0.011,0.949-0.286,3.669,0.294,3.324c-0.378,0.023-0.037,2.078,0.13,3.166
						l-0.279-0.168c0.356,0.917,0.454,0.947,0.553,2.229c-0.037,0.304-0.224,0.267-0.152-0.138
						c-0.146,1.012,0.264,0.789,0.115,2.018l-0.178-0.458c-0.021,1.042,0.074,0.958,0.281,1.534c0.112,0.654-0.07,1.976-0.322,2.13
						c0.154,0.14,0.359,0.71,0.287,1.325c-0.096,0.082-0.154-0.141-0.184-0.253c-0.189,1.742,0.324,2.59,0.051,3.787
						c-0.093,0.026-0.139,0.104-0.167,0.204c0.007-1.384,0.022-2.499,0.043-2.395c-0.257,0-0.303,1.118-0.657,0.229
						c0.193,0.897,0.614,2.433,0.494,3.521c-0.025,0.053-0.05,0.105-0.089,0.145l-0.029-0.112c-0.025,0.25-0.002,0.477,0.042,0.688
						c-0.043,0.348-0.074,0.568-0.077,0.904c-0.213,0.128-0.115,1.282-0.126,1.838c0.281-0.046,0.236,0.684,0.469,0
						c-0.021,0.088-0.034-0.105-0.046-0.475c-0.008-0.084-0.012-0.183-0.028-0.238l0.024,0.039
						c-0.005-0.366-0.011-0.845-0.019-1.387c0.143,0.44,0.263,0.901,0.106,1.519c0.181,0.286,0.366,0.6,0.454,0.777
						c-0.393,0.763-0.604,2.234-0.846,2.438c0.157,1.703,0.104,4.011,0.632,5.079c0.067,0.485-0.151,0.558-0.234,0.738
						c-0.053-0.279-0.045-0.611-0.121-0.763c0.136,0.968,0.053,2.867,0.422,3.099c-0.167,1.219-0.34-0.688-0.279,0.989l-0.113-0.227
						c-0.589,3.297,0.942,5.36,0.186,9.014c0.046-0.253,0.067-0.378,0.129-0.431c-0.156,1.958-0.097,3.971-0.044,5.982
						c0.026,1.006,0.051,2.011,0.045,3.008c-0.002,0.521-0.013,0.944-0.034,1.538c-0.021,0.665-0.053,1.346-0.1,2.075
						c0.34,0.028,0.675,0.056,1.01,0.084c0.827,0.053,1.375,0.021,1.57-0.047c0.267-0.068,0.478-0.172,0.834-0.262l0.253,0.303
						l1.22-0.349c1.729-0.255,2.995,0.741,5.185,0.259l-0.283-0.204c0.786,0.039,2.49-0.119,2.358,0.114
						c0.081-0.037,0.259-0.211,0.565-0.105l0.025,0.158l1.93-0.271c1.499,0.114-0.233,0.627,1.952,0.657
						c0.813-0.061,2.312-0.46,2.007-0.565c-0.327-0.008-0.836-0.099-0.862-0.257l0.743-0.082c0.135-0.466,0.706-0.942-1.118-1.268
						l-1.269,0.284l-0.411-0.226l1.069-0.014c-0.606-0.213-0.99-0.025-1.421,0.104c-0.103-0.12-0.28-0.204-0.533-0.249l-1.247,0.444
						c-0.151-0.182,0.561-0.361-0.278-0.462c-0.585,0.207,0.561,0.408-0.407,0.544c-0.608-0.211-0.431-0.384-1.145-0.203
						c-0.098-0.12,0.053-0.196,0.336-0.249c-0.637,0.144-1.682,0.061-2.009,0.309c-0.635-0.262-2.146,0.067-2.083-0.373
						c-0.199,0.105-1.119,0.346-1.701,0.364c1.065-0.527-2.185-0.031-1.903-0.597c-0.349,0.209-0.945,0.275-1.623,0.306
						c-0.163,0.006-0.33,0.012-0.5,0.018l-0.151,0.016c-0.105,0.012-0.216,0.027-0.358,0.063c-0.019-0.039-0.042-0.076-0.072-0.114
						c0.037,0.005,0.113-0.009,0.09,0.048c0.039-0.307,0.182-0.339,0.271-0.512c-0.392-0.102-0.481-1.325-0.723-1.985
						c0.378-0.964,0.46,0.585,0.823,0.282c-0.318,0.05-0.317-1.675-0.582-1.348c0.234-0.736,0.113-0.635,0.438-1.015
						c-0.49-0.13-0.083-0.685-0.384-1.297c0.241-1.068,0.459-0.275,0.31-1.446C51.423,127.686,51.597,128.728,51.597,128.728z
						 M50.749,100.856h0.006c0.007,0.24,0.012,0.445,0.016,0.575C50.766,101.313,50.76,101.146,50.749,100.856z M50.745,98.516
						c-0.012,0.285-0.014,0.64-0.012,1.016c-0.097,0.082-0.196-0.007-0.191-0.244C50.606,99.417,50.663,98.864,50.745,98.516z
						 M48.797,103.47c-0.04-0.371,0.016-0.496,0.073-0.545c0.009,0.174,0.02,0.377,0.033,0.647c0.009,0.011,0.025,0.031,0.034,0.043
						C48.884,103.58,48.834,103.539,48.797,103.47z"/>
					<path fill="#797979" d="M49.165,104.136c0.007,0.054,0.019,0.084,0.021,0.153c0.022-0.077,0.043-0.149,0.063-0.22
						c-0.03-0.046-0.061-0.091-0.088-0.132C49.163,104.002,49.164,104.073,49.165,104.136z"/>
					<path fill="#797979" d="M68.418,90.155l0.007-0.049c-0.012,0.039-0.022,0.079-0.04,0.102
						C68.398,90.174,68.407,90.174,68.418,90.155z"/>
					<polygon fill="#797979" points="51.282,66.174 51.212,66.177 51.273,66.381 					"/>
					<path fill="#797979" d="M67.453,103.055c-0.024,0.023-0.05,0.072-0.072,0.167C67.399,103.216,67.426,103.144,67.453,103.055z"
						/>
					<path fill="#797979" d="M67.391,108.627l-0.101,0.787C67.347,109.074,67.374,108.824,67.391,108.627z"/>
					<path fill="#797979" d="M67.251,112.911c0.049,0.054,0.086,0.069,0.12,0.083l0.002-0.008L67.251,112.911z"/>
					<path fill="#797979" d="M66.921,44.791c-0.002-0.06-0.006-0.115-0.013-0.166C66.854,44.237,66.875,44.501,66.921,44.791z"/>
					<path fill="#797979" d="M67.577,65.062c-0.051-0.214-0.101-0.428-0.133-0.651C67.423,64.772,67.417,65.051,67.577,65.062z"/>
					<path fill="#797979" d="M66.582,22.153c0.002,0.003,0.003,0,0.005,0.003c0-0.049,0-0.092,0-0.142L66.582,22.153z"/>
					<path fill="#797979" d="M67.449,63.467c-0.056,0.362-0.044,0.664-0.005,0.944C67.463,64.115,67.492,63.766,67.449,63.467z"/>
					<path fill="#797979" d="M67.123,131.479l-0.012,0.206c0.019-0.004,0.034,0.01,0.046,0.026L67.123,131.479z"/>
					<path fill="#797979" d="M67.157,131.712l0.033,0.229C67.19,131.835,67.188,131.744,67.157,131.712z"/>
					<path fill="#797979" d="M67.261,132.422l-0.07-0.481C67.189,132.106,67.181,132.313,67.261,132.422z"/>
					<path fill="#797979" d="M67.253,125.807l-0.102-0.064C67.173,125.778,67.205,125.801,67.253,125.807z"/>
					<path fill="#797979" d="M67.224,124.084c-0.023,0.411-0.218,1.032-0.153,1.604l0.081,0.054
						C67,125.474,67.396,124.476,67.224,124.084z"/>
					<path fill="#797979" d="M68.483,116.892l-0.081,1.443c0.108-0.253,0.255-0.585,0.28,0.072
						C69.007,116.586,68.44,118.782,68.483,116.892z"/>
					<path fill="#797979" d="M68.642,112.413c0.05,0.776,0.157-0.008,0.219,0.031C68.762,111.952,68.736,111.832,68.642,112.413z"/>
					<path fill="#797979" d="M68.643,80.049l0.256,0.079C68.861,79.529,68.799,80.121,68.643,80.049z"/>
					<polygon fill="#797979" points="67.32,73.864 67.161,74.445 67.396,74.723 					"/>
					<polygon fill="#797979" points="69.143,70.209 69.179,70.469 69.086,69.473 					"/>
					<path fill="#797979" d="M69.052,15.856l-0.315,0.181C68.793,16.441,69.146,16.525,69.052,15.856z"/>
					<path fill="#797979" d="M60.406-0.745c-0.256-0.157-0.916-0.259-1.321-0.104C59.611-0.827,60.137-0.705,60.406-0.745z"/>
					<polygon fill="#797979" points="48.756,59.95 48.65,59.477 48.738,60.368 					"/>
				</g>
			</g>
		</g>
	</g>
</g>
<g>
	<path fill="#666666" d="M109.524,188.761c0-26.614-22.131-48.188-49.432-48.188c-27.3,0-49.431,21.574-49.431,48.188
		c0,26.609,22.131,48.184,49.431,48.184C87.394,236.944,109.524,215.37,109.524,188.761z"/>
	<g>
		<g>
			<g>
				<g>
					<path fill="#797979" d="M110.189,188.761c-0.087-0.163-0.273-0.072-0.262,0.377l0.315,0.323L110.189,188.761z"/>
					<path fill="#797979" d="M109.422,191.751c0.134,0.531,0.383,1.164,0.704,0.846c-0.291-0.548-0.151-0.665-0.501-1.249
						c-0.015-0.447,0.147-0.775,0.266-0.695c-0.077-0.16,0.107-0.694-0.088-0.941c-0.286,0.578-0.334,1.304-0.163,2.087
						C109.559,191.958,109.481,191.793,109.422,191.751z"/>
					<path fill="#797979" d="M88.228,227.779l0.246-0.132C88.399,227.676,88.316,227.722,88.228,227.779z"/>
					<path fill="#797979" d="M63.286,236.142c0.201-0.019,0.282-0.056,0.29-0.086C63.392,236.087,63.239,236.114,63.286,236.142z"/>
					<path fill="#797979" d="M58.759,235.868c0.097,0.013,0.176,0.023,0.266,0.035C58.923,235.867,58.821,235.846,58.759,235.868z"
						/>
					<path fill="#797979" d="M88.228,227.779l-0.634,0.334C87.611,228.233,87.933,227.965,88.228,227.779z"/>
					<path fill="#797979" d="M109.478,197.854c0.008-0.155-0.003-0.285-0.023-0.409c-0.008,0.127-0.016,0.248-0.023,0.375
						C109.447,197.829,109.461,197.838,109.478,197.854z"/>
					<path fill="#797979" d="M96.829,219.846l0.147-0.158c0.014-0.07,0.021-0.146,0.02-0.219L96.829,219.846z"/>
					<path fill="#797979" d="M102.091,212.602c-0.117,0.166,0.086,0.371,0.148,0.502c-0.037-0.158-0.005-0.315,0.07-0.477
						C102.266,212.597,102.197,212.586,102.091,212.602z"/>
					<path fill="#797979" d="M107.92,199.618l0.027-0.256C107.94,199.429,107.928,199.54,107.92,199.618z"/>
					<path fill="#797979" d="M92.203,224.291c-0.038-0.022-0.086-0.028-0.125-0.023C92.101,224.295,92.146,224.299,92.203,224.291z"
						/>
					<path fill="#797979" d="M109.605,177.994c-0.021-0.002-0.03,0.01-0.048,0.013C109.6,178.054,109.623,178.065,109.605,177.994z"
						/>
					<path fill="#797979" d="M109.452,188.761l-0.023-0.146c-0.054-0.014-0.106-0.03-0.158-0.03L109.452,188.761z"/>
					<path fill="#797979" d="M50.632,234.656c0.016,0.005,0.02,0.006,0.034,0.01C50.885,234.667,50.765,234.654,50.632,234.656z"/>
					<path fill="#797979" d="M12.961,178.692c-0.465,0.775,0.043-1.426-0.56-0.234C12.539,178.368,12.529,179.688,12.961,178.692z"
						/>
					<path fill="#797979" d="M109.403,198.084c-0.019,0.124-0.037,0.249-0.056,0.377
						C109.384,198.291,109.401,198.174,109.403,198.084z"/>
					<path fill="#797979" d="M12.401,178.458h-0.002l-0.06,0.125C12.365,178.531,12.379,178.503,12.401,178.458z"/>
					<path fill="#797979" d="M33.167,227.742c0.007,0.062,0.051,0.131,0.1,0.202C33.277,227.916,33.258,227.864,33.167,227.742z"/>
					<path fill="#797979" d="M45.797,234.054c-0.002,0.008-0.329-0.13-0.326-0.138C45.595,233.992,45.701,234.029,45.797,234.054z"
						/>
					<path fill="#797979" d="M27.144,223.532c-0.129-0.144-0.151-0.214-0.373-0.36c0.009,0.027,0.019,0.05,0.037,0.078
						C26.904,223.284,27.011,223.354,27.144,223.532z"/>
					<path fill="#797979" d="M21.86,217.976c0.009,0.047,0.029,0.099,0.042,0.147c0.05,0.059,0.109,0.126,0.16,0.184L21.86,217.976z
						"/>
					<path fill="#797979" d="M98.472,156.624c0.061,0.181,0.069,0.318,0.061,0.436C98.599,156.838,99.454,157.652,98.472,156.624z"
						/>
					<path fill="#797979" d="M109.321,197.828c0.063,0.06,0.087,0.132,0.082,0.256c0.01-0.091,0.019-0.179,0.027-0.265
						C109.393,197.788,109.354,197.777,109.321,197.828z"/>
					<path fill="#797979" d="M25.415,224.963l-0.925-0.877C24.738,224.343,25.074,224.661,25.415,224.963z"/>
					<path fill="#797979" d="M46.293,141.334l0.276-0.104C46.457,141.251,46.359,141.284,46.293,141.334z"/>
					<path fill="#797979" d="M21.85,221.375c-0.082-0.233-0.202-0.447-0.345-0.654c-0.051-0.024-0.106-0.056-0.155-0.061
						L21.85,221.375z"/>
					<path fill="#797979" d="M98.532,157.063v-0.004V157.063z"/>
					<path fill="#797979" d="M103.981,163.451c-0.64-1.041-0.609-0.293-0.925-0.399c-0.851-1.167-0.126-0.716-0.229-1.237
						c-0.541-0.735-1.253-1.077-1.651-1.617c0.019-0.075-0.043-0.191,0.112-0.114c-0.828-0.567-1.705-2.271-2.728-2.854
						c-0.031-0.081-0.037-0.133-0.029-0.166c-0.018,0.253-0.143,0.395-0.269,0.455c-0.37-0.387-0.85-0.569-0.807-0.878
						c0.219,0.245,0.309,0.199,0.471,0.263l-0.462-0.342c-0.087-0.603,0.612,0.481,0.806,0.312
						c-0.838-0.733-1.915-1.468-2.417-2.149c0.12-0.369,1.426,1.361,0.874,0.327l0.797,1.045c-0.288-1.096,0.519,0.61,0.311-0.453
						c-0.557-0.669-0.92-0.995-1.281-1.318c-0.181-0.162-0.361-0.324-0.566-0.528c-0.217-0.192-0.473-0.412-0.778-0.719
						c-0.418-0.119-0.094,0.289-0.513,0.17c-2.046-1.35-0.87-1.937-2.538-2.759c-0.52-0.1-0.925,0.136-1.817-0.796l0.583-0.051
						c-1.334-1.019-1.093-0.113-2.354-1.352c0.333,0.057,1.132,0.667,0.953,0.48c-0.749-0.911-0.762-0.309-1.482-0.788l0.03-0.377
						c-0.782-0.433-1.627-0.847-2.488-1.269c-0.43-0.213-0.864-0.428-1.301-0.644c-0.437-0.217-0.907-0.374-1.354-0.577
						c0.144-0.045,0.498,0.005,0.127-0.284c-1.168-0.443-2.348-1.048-3.538-1.613c-1.218-0.496-2.414-1.033-3.521-1.533
						c0,0-0.238-0.007-0.477-0.015s-0.478-0.007-0.478-0.007c-0.205-0.055-0.347-0.224-0.106-0.223
						c-0.878-0.335-0.099,0.168-0.566,0.169c-0.521-0.109-0.636-0.334-0.285-0.336c-0.836-0.082-2.007-0.237-3.166-0.462
						c-0.575-0.135-1.165-0.199-1.711-0.291c-0.545-0.095-1.047-0.211-1.465-0.353l0.348-0.037
						c-1.325-0.317-1.584,0.373-2.784-0.082l0.243-0.017c-1.447-0.198-2.992-0.194-4.439-0.283c-0.363-0.02-0.72-0.04-1.069-0.06
						c-0.349,0.004-0.69,0.007-1.022,0.01c-0.663-0.007-1.286-0.043-1.852-0.126c-0.395,0.435-2.921-0.05-3.039,0.635
						c-1.685-0.045-1.225-0.221-3.603-0.063c-0.634,0.051-0.856,0.524-1.595,0.775l-0.084-0.297l-0.952,0.571l-0.636-0.221
						l-0.69,0.255c0.286-0.053,0.636-0.017,0.614,0.081c-0.535,0.205-1.22,0.322-1.786,0.371c-0.566,0.042-0.988,0.102-1.03,0.019
						l-2.465,1.155c0.012-0.136,0.424-0.328,0.738-0.523c-1.256,0.782-0.363-0.216-1.512,0.501c0.192,0.006-0.024,0.203-0.029,0.271
						c-0.71-0.003-2.053,0.702-3.032,1.227l0.103-0.283c-0.913,0.427-1.904,0.83-2.824,1.426c-0.926,0.585-1.873,1.189-2.846,1.765
						c0.75-0.33,0.781,0.079,0.236,0.443l-0.402-0.14c-0.256,0.386,0.657-0.246,0.042,0.404c-0.373,0.191-0.534,0.203-0.569,0.105
						c-0.039-0.103,0.059-0.299,0.241-0.463c0-0.001-0.215,0.14-0.4,0.322c-0.191,0.175-0.382,0.349-0.382,0.349
						c-0.103-0.045,0.063-0.229,0.043-0.369c-0.224,0.413-1.626,0.779-1.912,1.423l-0.105-0.043
						c-1.87,1.289-2.498,2.146-3.879,3.358c0.163,0.231-0.417,0.662-0.667,1.188c-1.02,0.872-2.172,1.846-3.272,3.044
						c-0.667,0.933-0.058,0.389-0.253,0.893c-0.247-0.099-1.215,1.202-0.847,0.421c-0.579,0.787-0.948,1.29-1.339,1.855
						c-0.389,0.565-0.832,1.175-1.367,2.294c0.229-0.169,0.426-0.397,0.416-0.217c-0.198,0.398-0.625,0.798-0.694,0.678l0.039-0.113
						c-0.541,1.287-1.636,2.476-2.403,3.804c-0.413,0.646-0.816,1.282-1.146,1.896c-0.331,0.613-0.602,1.197-0.65,1.775l0.02-0.126
						l-0.544,2.239c-0.41,0.968,0.041-0.657-0.381,0.02c-0.117,0.615-0.264,1.146-0.425,1.633c-0.142,0.492-0.271,0.946-0.398,1.389
						c-0.267,0.879-0.538,1.708-0.658,2.723c-0.624,0.662-0.763,2.074-0.961,3.53c-0.089,0.73-0.177,1.478-0.283,2.171
						c-0.041,0.7-0.115,1.346-0.263,1.872l0.185-0.11c0.145,0.559-0.137,0.658-0.198,1.063c0.141-0.051,0.19-0.589,0.269-0.241
						c-0.117,2.326,0.047,4.711,0.048,7.139c0.055,1.208,0.229,2.413,0.338,3.626c0.067,0.604,0.117,1.213,0.204,1.813
						c0.13,0.592,0.26,1.182,0.389,1.769c0.412,1.715,1.122,0.72,1.313,2.952c-0.016,0.007-0.493-0.499-0.493-0.499
						c0.729,1.623,1.407,3.289,2.024,4.974c0.802,1.601,1.514,3.251,2.516,4.66c-0.174-0.137-0.264-0.094-0.44-0.38
						c0.176,0.739,1.418,2.301,1.588,2.202c0.264,0.466-0.084,0.201,0.008,0.536c0.273,0.7,1.211,1.397,1.281,1.819
						c0.009,0.076-0.188-0.118-0.285-0.214c0.385,0.312,1.329,1.784,1.272,1.255c0.341,0.553,0.743,1.025,1.12,1.473
						c0.37,0.454,0.73,0.869,1.034,1.289c0.689,0.285,1.401,1.722,1.864,1.576c-0.195,0.122,0.126,0.601,0.586,1.104
						c0.445,0.519,1.134,0.948,1.498,1.153c-0.298-0.081,0.436,0.576,0.069,0.504c0.705,0.615,1.402,1.12,1.431,0.836
						c0.233,0.387,0.531,0.704,0.849,0.979c0.333,0.256,0.7,0.449,1.036,0.643c0.676,0.383,1.258,0.72,1.449,1.287
						c0.603,0.35,1.164,0.735,1.761,1.042c0.6,0.301,1.189,0.596,1.771,0.887c1.165,0.573,2.245,1.217,3.413,1.648
						c-0.137,0.176-0.776-0.085-1.366-0.385c-0.577-0.324-1.135-0.635-1.206-0.402c0.537,0.255,1.009,0.494,1.481,0.663
						c0.477,0.156,0.923,0.303,1.369,0.449c0.885,0.298,1.745,0.625,2.778,1.169c0.523,0.313-0.386,0.035-0.602,0.02
						c0.545,0.226,1.094,0.412,1.639,0.585c0.538,0.19,1.066,0.378,1.588,0.563c1.047,0.353,2.039,0.787,3.101,0.878
						c-0.018,0.039-0.25,0.028-0.466,0.009c0.404,0.087,0.914,0.298,0.922,0.089l-0.404-0.044c-0.552-0.445,1.744-0.203,1.847-0.34
						c-0.815,0.401,1.951,0.642,0.714,1.097c0.274,0.028,0.625,0.016,0.594-0.133c0.38,0.136,0.489,0.245,0.06,0.299
						c0.726,0.14,0.982,0.066,1.212,0.037c0.23-0.034,0.44-0.057,1.099,0.044c-0.02,0.097-0.293,0.095-0.449,0.189
						c0.705-0.09,1.401-0.183,2.5,0.065c-0.073,0.05,0.045,0.146-0.286,0.096c0.959,0.134,1.789,0.135,2.643,0.043
						c0.853-0.06,1.718-0.092,2.769,0.054c-0.634,0.4,0.714,0.177,0.824,0.555c0,0.001,0.287-0.007,0.573-0.034
						c0.286-0.042,0.571-0.084,0.571-0.084l-0.458-0.158c1-0.043,1.869-0.357,2.729-0.277l-0.734,0.19l1.865-0.163l-1.065-0.089
						c0.993-0.242-0.137-0.467,1.186-0.428c-0.264,0.039,0.99-0.009,1.52,0.092l-0.003,0.001c0.475-0.19,0.954-0.388,1.69-0.404
						c0.205,0.09-0.094,0.432,0.041,0.492c0.433-0.39,2.304-0.409,2.837-0.869c-0.184,0.127-0.155,0.321-0.081,0.344l0.343-0.347
						c0.463-0.032,0.539-0.011,0.499,0.16c1.356-0.292-0.531-0.355,1.108-0.556c-0.12,0.052-0.052,0.073-0.303,0.176
						c1.628-0.31,3.065-0.874,4.511-1.326c0.543,0.206-1.223,0.534-0.643,0.663c1.028-0.402,2.064-0.892,3.092-1.357
						c0.521-0.214,1.015-0.482,1.501-0.749c0.489-0.257,0.979-0.494,1.467-0.699l-0.375,0.131c0.036-0.604,1.538-0.434,2.401-1.115
						c-0.22,0.146-0.177,0.408-0.139,0.324c1.318-0.618,2.516-1.611,4.306-2.869c0.004,0.006-0.155,0.258-0.155,0.258
						c0.778-0.371,1.868-1.261,2.656-1.749c0.142-0.271,0.581-0.564,0.201-0.533c1.423-0.483,2.328-1.55,3.246-2.493
						c0.453-0.482,0.895-0.957,1.366-1.39c0.431-0.475,0.896-0.904,1.444-1.255c-0.206,0.223-0.407,0.611-0.242,0.436l1.38-1.665
						c-0.289-0.028-0.298,0.114-0.737,0.322c0.085-0.292,0.414-0.801,0.774-1.187c-0.539,0.802,0.285,0.237,0.67,0.013
						c-0.102,0.006-0.064-0.149-0.145-0.17c1-0.627-0.243-0.445,0.898-1.479l0.046,0.14c0.3-0.492,0.49-1.005,0.892-1.471
						c0.371-0.045-0.269,0.555-0.117,0.719c0.501-0.714,0.667-1.622,1.282-2.145c-0.118,0.364-0.439,0.782-0.606,1.115
						c0.786-0.489,0.757-0.635,1.137-1.148l-0.038,0.05l0.899-1.176l-0.271,0.274c-0.005-0.65,0.258-1.132,0.573-1.642
						c0.315-0.508,0.698-1.036,0.796-1.809c-0.248,1.477,0.116,0.329,0.335,0.57c0.239-0.295,0.577-0.766,0.581-0.58
						c0.091-0.735,0.689-0.962,0.805-2.001c0.107,0.003,0.338-0.663,0.491-0.421c0.332-0.846-0.25,0.123-0.327,0.002
						c0.186-0.681,0.564-1.402,0.951-2.214c0.395-0.807,0.806-1.702,0.94-2.713c0.345-1.7,0.049-2.116,0.313-3.679
						c0.288-0.481,0.232,0.511,0.232,0.511c0.348-0.806,0.53-1.44,0.572-2.264c0.058,0.179,0.155,0.025,0.301-0.2
						c0.078-0.657-0.28-0.5-0.005-1.329c0.084,0.164,0.226,0.383,0.284,0.718c0.032-0.787-0.028-1.574,0.008-2.377
						c0.201-0.189,0.181,0.513,0.246,0.811c0.056-0.909,0.239-2.337-0.065-2.645c0,0-0.116,0.567-0.134,0.565
						c0.014-0.327,0.259-0.144,0.267,0.101c0.091,0.79-0.265,1.093-0.368,1.122l0.026-0.569c-0.658,0.501-0.262,2.265-0.474,3.401
						l-0.335-0.547l0.156,1.223c-0.176,0.22-0.425,0.336-0.371-0.226c-0.38,0.75-0.032,0.731-0.428,1.359
						c-0.055,0.065-0.065,0.028-0.063-0.045l-0.083,0.798c-0.045-0.172-0.317,0.054-0.136-0.401
						c-0.593,1.308-0.284,2.302-0.723,2.731l0.006-0.123c-0.493,1.911,0.244,0.273,0.073,1.792l-1.061,0.679l0.218,0.29
						c-0.082,0.188-0.244,0.555-0.332,0.44c-0.072,0.788,0.169-0.073,0.197,0.413c-0.318,0.402-0.473,1.072-0.746,1.589
						c-0.253,0.525-0.487,0.955-0.756,0.949c0.054,0.417,0.579-0.768,0.259,0.245c-0.603,0.039-0.458,1.129-1.07,1.827
						c-0.116-0.375,0.385-1.065-0.224-0.377c0.08,0.346-0.127,0.731-0.406,1.104c-0.307,0.357-0.666,0.712-0.827,1.053
						c0.293,0.217-0.736,1.468-1.305,2.608c0.001-0.093-1.6,1.787-2.402,2.642l-0.025-0.065c0.137,0.399-0.609,1.361-1.19,2.027
						c-0.143-0.17-0.099-0.344,0.151-0.756l-0.562,0.604c-0.045,0.22-0.175,0.451-0.511,0.873l-0.062-0.337
						c-0.368,0.405-0.686,0.865-1.051,1.339c-0.361,0.477-0.767,0.971-1.377,1.355c0.111,0.243,1.344-0.24,0.321,0.895
						c-0.136-0.064-0.337-0.202-0.08-0.506c-0.084,0.1-0.269,0.393-0.504,0.521l0.294-0.571c-0.556,0.355-0.122,0.368-0.526,0.698
						c-0.124-0.154-0.382,0.148-0.431-0.018c0.086-0.102,0.394-0.238,0.488-0.427c-0.461,0.361-1.065,0.74-1.336,0.78
						c0.111,0.051,0.174,0.201-0.129,0.504c-0.817,0.744-0.436,0.067-0.978,0.414c-0.115,0.281-0.781,0.569-0.611,0.817
						c-0.263,0.189-0.393,0.114-0.542,0.124c-0.381,0.438-2.126,1.596-1.427,1.475l0.13-0.069c-0.02,0.019-0.043,0.041-0.069,0.066
						c0.006-0.004,0,0,0.006-0.004l-0.006,0.004c-0.34,0.332-0.703,0.65-1.107,0.917c-0.416,0.246-0.85,0.473-1.285,0.694
						c-0.872,0.442-1.746,0.863-2.516,1.393l-0.044-0.089c-0.931,0.615-2.197,1.12-2.825,1.661c-0.3,0.142-0.776,0.166-0.697-0.001
						c-0.737,0.427-0.771,0.6-1.991,0.845c0.737-0.446-0.333-0.045,0.775-0.411c-1.069,0.291-1.353,0.224-2.373,0.874
						c0.293-0.373-0.88-0.023-1.345,0.223l0.778-0.086c-0.543,0.225-1.025,0.401-1.533,0.521c0,0,0.172-0.396,0.172-0.396
						c-1.133,0.094-2.059,0.488-2.94,0.856c-0.882,0.354-1.712,0.721-2.622,0.474c-0.545,0.315,1.232-0.018,0.762,0.327
						c-1.038,0.108-2.174-0.205-2.489-0.159c-1.413,0.002-1.231,0.726-2.723,0.72c0.199,0.108,0.411,0.415-0.696,0.581
						c-1.05,0.008-1.305-0.434-0.661-0.561c0.246-0.021,0.369,0.009,0.36,0.05c0.331-0.06,0.765-0.131,0.346-0.239l-0.124,0.125
						c-0.52-0.097-1.932-0.014-1.608-0.225c-0.771,0.151-0.325,0.211,0.254,0.244c-1.325-0.135-2.063,0.171-3.419-0.058
						c0.212,0.076,0.411,0.226,0.194,0.214c-1.991-0.246-0.885,0.182-2.25,0.166c-0.76-0.219,0.304-0.418-1.068-0.333
						c-0.821-0.162-0.147-0.322,0.187-0.403c-0.312,0.043-0.612,0.047-0.896,0.029c-0.282-0.037-0.547-0.111-0.795-0.183
						c-0.496-0.146-0.919-0.315-1.263-0.388h0.651c-0.389,0-0.702-0.049-1.021-0.097l0.333,0.289
						c-0.372-0.097-0.69-0.145-0.667-0.241c-0.415,0.096,0.237,0.434-0.573,0.529c-0.483-0.201-1.571-0.09-1.68-0.45
						c1.563,0.366-0.115-0.329,1.23-0.176c-0.264-0.001-0.579-0.049-0.947-0.146c-0.05-0.043,0.066-0.057,0.173-0.059
						c-1.429-0.602-0.753,0.19-2.297-0.194c0.237-0.123-0.276-0.416-0.534-0.441c0.615,0.158,0.226,0.361-0.382,0.35
						c-0.955-0.381-1.106-0.17-1.622-0.316l0.576,0.211c-0.249,0.112-0.752,0.003-1.437-0.208c-0.016-0.152,0.64,0.128,0.418-0.017
						c-0.848,0.029-1.586-0.909-2.694-1.081c-0.44-0.284,0.071-0.329-0.322-0.555c-1.25-0.182-1.148-0.694-2.389-1.065
						c0.238,0.376,0.325,0.352-0.6,0.174c0,0,0.5,0.189,1.001,0.378c0.25,0.094,0.499,0.188,0.687,0.259
						c0.185,0.076,0.316,0.106,0.316,0.107c0-0.001-0.348-0.053-0.692-0.121c-0.346-0.067-0.692-0.134-0.692-0.134
						c0.588,0.278,1.289,0.458,1.647,0.601c-0.689-0.039-0.605-0.073-0.387,0.216c-0.679-0.668-1.684-0.549-2.522-1.198l0.282-0.521
						c-0.634-0.444-1.28-0.66-1.987-0.896c-0.675-0.295-1.412-0.611-2.23-1.182l0.499,0.414c-0.35,0.066-1.077-0.599-1.684-0.848
						c0.158-0.136-0.151-0.401-0.32-0.644c-0.076,0.176-1.173-0.852-1.549-0.63l-0.568-0.736c-0.616-0.515-1.069-0.671-1.525-0.822
						c-0.465-0.139-0.903-0.309-1.458-0.86c0.486,0.145,0.052-0.428,0.922,0.139c-0.383-0.343-0.706-0.678-0.801-0.578
						c-0.144-0.293-1.248-0.751-1.479-1.206c-0.222-0.08-0.415,0.024-0.841-0.374c-0.021-0.072,0.068-0.07,0.068-0.07
						c-0.067,0.07-0.776-0.51-0.546-0.015c-0.364-0.779-1.107-1.606-1.876-2.384c-0.38-0.393-0.759-0.778-1.077-1.151
						c-0.32-0.37-0.516-0.781-0.633-1.133c-0.738-0.854-1.619-1.897-2.256-2.703c0.087,0.018,0.083-0.054,0.183,0.11
						c-0.639-1.271-0.943-0.414-1.639-1.896c-0.167-0.871,0.6,0.636,0.429,0.134c0.445-0.537-1.127-1.59-1.325-2.725l0.148,0.215
						c-0.169-0.841-1.106-1.686-1.667-2.924c0,0,0.082,0.036,0.093-0.033c-0.768-0.661-1.461-2.282-2.009-3.48
						c0.383,0.295,0.335,0.51,0.491,0.188c-0.24-0.533-0.328,0.309-0.809-0.769c-0.001-0.405-0.19-1.232,0.042-1.422l0.396,1.024
						c0.07-0.321-0.057-0.65-0.221-0.971c-0.14-0.328-0.296-0.655-0.343-0.943l0.168,0.027c-0.474-1.602-0.861-1.527-1.297-3.291
						l-0.067,0.206c-0.637-0.882,0.058-0.859-0.402-1.777l0.342-0.365c-0.18-0.626-0.762-2.198-0.958-3.367
						c0.334,0.64,0.739,1.966,1.027,2.772c-0.096-0.635-0.367-2.153-0.613-2.467c0.079,0.254,0.225,0.565,0.205,0.826
						c-0.477-0.738-0.642-1.782-0.708-3.081c0.387,0.092,0.392-0.748,0.368-1.73c-0.075-0.981,0.066-2.111,0.368-2.563
						c-0.071-1.133-0.021-2.262,0.149-3.416c0.242-1.148,0.518-2.33,0.697-3.632c-0.729,0.813,0.102-0.763-0.522-0.727
						c0.083-0.614,0.181-0.836,0.225-0.882l0.833-1.722c0.285-0.382-0.019,0.599,0.129,0.577c0.387-1.282,0.394-0.477,0.774-1.282
						c-0.253,0.115-0.189-0.54,0.096-1.245c0,0-0.141,0.235-0.277,0.474c-0.136,0.24-0.271,0.479-0.271,0.479
						c0.063-0.96,0.333-1.303,0.606-1.639c0.266-0.341,0.529-0.675,0.709-1.612l-0.029,0.623c0.116-0.47,0.429-1.301,0.697-2.149
						c0.269-0.848,0.636-1.653,0.607-2.195c0.141-0.124,0.391-0.252,0.242,0.148c0.273-0.51,0.521-1.066,0.759-1.642l0.35-0.87
						c0.14-0.278,0.28-0.555,0.418-0.829c0.561-1.091,1.118-2.124,1.719-2.805l0.032,0.232c0.181-0.397,0.172-0.797,0.634-1.134
						c0.033,0.059,0.015,0.226,0.144,0.072c0.096-0.21,0.489-1.067,0.909-1.472l-0.165,0.49c0.772-0.828,1.191-1.597,1.619-2.313
						c0.455-0.692,0.856-1.382,1.472-2.117c0.339,0.322,1.583-0.943,2.339-1.43l0.02,0.065c0.999-0.848,1.768-1.651,2.509-2.47
						c0.781-0.768,1.577-1.493,2.513-2.294c0.377-0.125,0.827-0.371,1.333-0.674c0.533-0.263,1.118-0.587,1.725-0.933
						c0.606-0.345,1.236-0.704,1.848-1.053c0.601-0.367,1.266-0.564,1.833-0.781c-0.371,0.086-0.097-0.332,0.278-0.558
						c0.556-0.162,1.311-0.953,1.392-0.546l-0.188,0.08c0.548,0.175,1.554-0.433,2.435-0.69l-0.045-0.544
						c0.636-0.022,1.313-0.181,2-0.404c0.687-0.221,1.374-0.537,2.069-0.72c1.37-0.426,2.621-0.833,3.326-0.656
						c0.528-0.299,1.244-0.369,1.789-0.591l0.019,0.284c0.797-0.082,1.393-0.143,2.033-0.229c0.642-0.063,1.317-0.256,2.306-0.3
						l-0.384,0.221c1.105-0.035,1.343-0.882,2.386-0.95l0.33,0.407c1.959-0.193,3.904,0.411,5.851,0.089
						c-0.036,0.06-0.104,0.179-0.418,0.181c0.927-0.03,3.475,0.683,3.227,0.052c-0.03,0.383,1.983,0.321,3.065,0.335l-0.214,0.239
						c0.936-0.144,0.985-0.223,2.225-0.016c0.28,0.107,0.199,0.279-0.167,0.114c0.922,0.382,0.813-0.068,1.943,0.368l-0.482,0.063
						c0.977,0.275,0.931,0.137,1.527,0.111c0.639,0.109,1.804,0.719,1.858,1.006c0.179-0.1,0.776-0.104,1.318,0.166
						c0.042,0.116-0.186,0.098-0.298,0.088c1.545,0.7,2.461,0.672,3.419,1.398c-0.016,0.095,0.033,0.168,0.109,0.235
						c-1.217-0.579-2.193-1.056-2.095-1.031c-0.096,0.238,0.861,0.739-0.053,0.7c0.851,0.188,2.38,0.44,3.286,0.999
						c0.035,0.044,0.07,0.087,0.087,0.139l-0.111-0.021c0.208,0.125,0.418,0.197,0.622,0.246c0.291,0.173,0.445,0.336,0.727,0.496
						c0.005,0.25,1.01,0.732,1.467,1.016c0.104-0.266,0.693,0.136,0.239-0.402c0.064,0.061-0.105-0.023-0.421-0.197
						c-0.074-0.035-0.159-0.08-0.214-0.094l0.045-0.002c-0.31-0.177-0.713-0.409-1.171-0.672c0.437,0.093,0.885,0.219,1.325,0.662
						c0.331-0.015,0.691-0.017,0.887-0.003c0.439,0.729,1.576,1.603,1.573,1.958c0.71,0.421,1.511,0.973,2.278,1.442
						c0.771,0.467,1.513,0.853,2.055,1.02c0.399,0.265,0.312,0.479,0.39,0.658c-0.238-0.14-0.476-0.361-0.635-0.4
						c0.793,0.522,2.123,1.811,2.546,1.692c0.778,0.915-0.731-0.202,0.528,0.849c0.004-0.005-0.24-0.07-0.24-0.07
						c0.906,1.363,1.939,2.156,3.031,3.003c1.056,0.868,2.021,1.923,2.819,3.549c-0.112-0.223-0.17-0.333-0.151-0.41
						c0.592,0.833,1.068,1.757,1.635,2.63l0.85,1.316c0.289,0.437,0.589,0.869,0.813,1.343c0.965,1.854,2.002,3.696,2.377,5.705
						c0.3,1.102,0.565,1.138,0.981,1.737l-0.2,0.326c0.033-0.014,0.665,1.042,0.665,1.041c0.34,0.787,0.35,1.552,0.397,2.35
						c0.025,0.4,0.06,0.81,0.151,1.241c0.088,0.433,0.159,0.903,0.369,1.408l0.157-0.311c0.081,0.767,0.497,2.397,0.245,2.303
						c0.05,0.072,0.249,0.222,0.19,0.533l-0.152,0.044c0,0,0.139,0.459,0.277,0.918c0.092,0.467,0.184,0.935,0.184,0.935
						c-0.038,1.477-0.637-0.176-0.558,1.945c0.102,0.779,0.577,2.239,0.668,1.944c-0.009-0.32,0.055-0.821,0.213-0.851l0.119,0.731
						c0.472,0.127,0.979,0.718,1.21-1.137l-0.351-1.271l0.205-0.429l0.069,1.084c0.181-0.625-0.027-1.008-0.179-1.434
						c0.114-0.111,0.188-0.297,0.22-0.559c0,0-0.127-0.306-0.255-0.612c-0.126-0.306-0.265-0.606-0.265-0.606
						c0.156-0.172,0.446,0.524,0.417-0.328c-0.297-0.563-0.319,0.604-0.604-0.345c0.115-0.631,0.314-0.48,0.023-1.167
						c0.104-0.116,0.203,0.023,0.3,0.301c-0.242-0.618-0.325-1.679-0.62-1.962c0.078-0.34-0.021-0.874-0.089-1.323
						c-0.11-0.44-0.176-0.801,0.047-0.819c-0.154-0.174-0.626-1.019-0.793-1.581c0.785,0.907-0.534-2.145,0.079-2.034
						c-0.653-0.637-1.195-2.661-1.922-3.897c0.063,0.059,0.188,0.177,0.21,0.303c-0.253-0.758-0.175-1.042-0.313-1.544
						c-0.405,0.063-1.034-1.009-1.546-1.498c-0.091-1.039,0.675,0.328,0.867-0.103c-0.265,0.181-1.039-1.387-1.126-0.968
						c-0.123-0.775-0.185-0.627-0.069-1.127c-0.245,0.058-0.34-0.088-0.442-0.299c-0.121-0.2-0.254-0.466-0.548-0.652
						c-0.363-1.04,0.247-0.473-0.51-1.404C103.271,162.639,103.981,163.451,103.981,163.451z M82.884,145.199l0.003-0.006
						c0.222,0.097,0.411,0.18,0.53,0.232C83.308,145.379,83.152,145.313,82.884,145.199z M80.752,144.202
						c0.254,0.132,0.576,0.285,0.92,0.444c0.033,0.123-0.09,0.176-0.302,0.07C81.514,144.713,81.036,144.426,80.752,144.202z
						 M84.24,148.133c-0.328-0.148-0.405-0.258-0.419-0.333c0.149,0.078,0.324,0.169,0.557,0.29
						c0.014-0.002,0.037-0.006,0.052-0.008C84.375,148.111,84.315,148.135,84.24,148.133z"/>
					<path fill="#797979" d="M84.979,148.143c0.049,0.021,0.079,0.025,0.139,0.059c-0.054-0.058-0.104-0.111-0.153-0.164
						c-0.054,0.003-0.106,0.007-0.154,0.01C84.866,148.079,84.927,148.112,84.979,148.143z"/>
					<path fill="#797979" d="M88.517,227.625l-0.043,0.022c0.038-0.013,0.075-0.026,0.104-0.025
						C88.544,227.63,88.539,227.622,88.517,227.625z"/>
					<polygon fill="#797979" points="48.829,140.556 48.847,140.624 49.035,140.514 					"/>
					<path fill="#797979" d="M98.634,219.784c0.036,0,0.084-0.023,0.16-0.085C98.774,219.691,98.714,219.735,98.634,219.784z"/>
					<path fill="#797979" d="M102.021,215.346l0.503-0.615C102.294,214.989,102.14,215.188,102.021,215.346z"/>
					<path fill="#797979" d="M104.384,211.747c-0.02-0.072-0.046-0.104-0.068-0.133l-0.006,0.007L104.384,211.747z"/>
					<path fill="#797979" d="M45.548,235.929c-0.059-0.013-0.114-0.023-0.167-0.029C44.985,235.856,45.251,235.901,45.548,235.929z"
						/>
					<path fill="#797979" d="M65.774,237.029c-0.206,0.08-0.411,0.169-0.631,0.223C65.505,237.231,65.782,237.188,65.774,237.029z"
						/>
					<path fill="#797979" d="M25.517,225.061c0.004,0,0.002-0.003,0.006-0.002c-0.038-0.033-0.07-0.063-0.108-0.096L25.517,225.061z
						"/>
					<path fill="#797979" d="M64.199,237.294c0.366,0.037,0.669,0.011,0.944-0.042C64.846,237.247,64.495,237.236,64.199,237.294z"
						/>
					<path fill="#797979" d="M110.099,194.05l0.044-0.204c-0.02,0.002-0.032-0.014-0.041-0.031L110.099,194.05z"/>
					<path fill="#797979" d="M110.102,193.814c0.007,0.001-0.017-0.232-0.017-0.232
						C110.078,193.688,110.079,193.779,110.102,193.814z"/>
					<path fill="#797979" d="M110.04,193.091l0.045,0.491C110.095,193.415,110.114,193.207,110.04,193.091z"/>
					<path fill="#797979" d="M108.98,199.653l0.083,0.086C109.051,199.7,109.025,199.671,108.98,199.653z"/>
					<path fill="#797979" d="M108.567,201.338c0.127-0.394,0.476-0.952,0.561-1.527l-0.064-0.071
						C109.141,200.039,108.501,200.915,108.567,201.338z"/>
					<path fill="#797979" d="M105.031,207.656c0.037,0.017,0.606-1.279,0.606-1.279c-0.188,0.192-0.437,0.438-0.235-0.172
						C104.465,207.738,105.79,205.969,105.031,207.656z"/>
					<path fill="#797979" d="M102.938,211.511c0.308-0.694-0.129-0.062-0.175-0.132
						C102.596,211.832,102.556,211.946,102.938,211.511z"/>
					<path fill="#797979" d="M79.774,232.241l-0.031-0.268C79.23,232.256,79.776,232.068,79.774,232.241z"/>
					<path fill="#797979" d="M74.46,235.562l0.612,0.007l0.194-0.318c0,0-0.194,0.101-0.398,0.17
						C74.664,235.491,74.46,235.562,74.46,235.562z"/>
					<polygon fill="#797979" points="70.519,234.672 70.755,234.575 69.839,234.901 					"/>
					<path fill="#797979" d="M22.896,218.885l-0.12,0.334C23.089,219.471,23.411,219.296,22.896,218.885z"/>
					<path fill="#797979" d="M12.514,198.825c0.07-0.272,0.05-0.919-0.149-1.282c0.028,0.255,0.032,0.516,0.039,0.743
						C12.428,198.511,12.462,198.702,12.514,198.825z"/>
					<polygon fill="#797979" points="43.608,144.696 43.214,144.949 43.994,144.577 					"/>
				</g>
			</g>
		</g>
	</g>
</g>
</svg>
